<svg width="3447" height="3447" viewBox="0 0 3447 3447" fill="none" xmlns="http://www.w3.org/2000/svg">
<g filter="url(#filter0_i)">
<path d="M1642.92 2664.77L1159.75 2772.63C1149.62 2774.89 1143.23 2784.94 1145.5 2795.07C1147.76 2805.21 1157.81 2811.59 1167.94 2809.32L1651.11 2701.46C1661.24 2699.2 1667.63 2689.15 1665.36 2679.02C1663.1 2668.88 1653.05 2662.5 1642.92 2664.77Z" fill="#002D72"/>
</g>
<g filter="url(#filter1_i)">
<path d="M1735.06 2747.87L2021.14 3151.9C2027.14 3160.38 2038.88 3162.38 2047.35 3156.38C2055.82 3150.38 2057.83 3138.65 2051.83 3130.18L1765.75 2726.14C1759.75 2717.67 1748.01 2715.66 1739.54 2721.66C1731.07 2727.66 1729.06 2739.4 1735.06 2747.87Z" fill="#002D72"/>
</g>
<g filter="url(#filter2_i)">
<path d="M2332.28 2709.29C2331.69 2719.73 2322.7 2727.68 2312.26 2726.99L1803.31 2693.17C1793.03 2692.49 1785.21 2683.65 1785.79 2673.36C1786.38 2662.92 1795.37 2654.96 1805.81 2655.66L2314.76 2689.47C2325.04 2690.15 2332.86 2698.99 2332.28 2709.29Z" fill="#002D72"/>
</g>
<g filter="url(#filter3_i)">
<path d="M1207.2 2905.07C1274.69 2905.07 1329.4 2850.35 1329.4 2782.87C1329.4 2715.38 1274.69 2660.67 1207.2 2660.67C1139.71 2660.67 1085 2715.38 1085 2782.87C1085 2850.35 1139.71 2905.07 1207.2 2905.07Z" fill="#002D72"/>
</g>
<g filter="url(#filter4_i)">
<path d="M2009.33 3224.66C2076.82 3224.66 2131.53 3169.95 2131.53 3102.46C2131.53 3034.98 2076.82 2980.26 2009.33 2980.26C1941.84 2980.26 1887.13 3034.98 1887.13 3102.46C1887.13 3169.95 1941.84 3224.66 2009.33 3224.66Z" fill="#002D72"/>
</g>
<g filter="url(#filter5_i)">
<path d="M2366.53 2829.87C2434.01 2829.87 2488.72 2777.96 2488.72 2713.93C2488.72 2649.9 2434.01 2598 2366.53 2598C2299.04 2598 2244.33 2649.9 2244.33 2713.93C2244.33 2777.96 2299.04 2829.87 2366.53 2829.87Z" fill="#002D72"/>
</g>
<g filter="url(#filter6_d)">
<g filter="url(#filter7_i)">
<path d="M1306.56 2512.77C1304.89 2520.89 1310.12 2528.82 1318.23 2530.49C1326.35 2532.16 1334.28 2526.94 1335.95 2518.82L1306.56 2512.77ZM1710.37 2661.25C1710.37 2669.54 1717.09 2676.25 1725.37 2676.25C1733.66 2676.25 1740.37 2669.54 1740.37 2661.25H1710.37ZM2134.05 2519.01C2135.82 2527.1 2143.82 2532.22 2151.91 2530.45C2160 2528.68 2165.12 2520.68 2163.35 2512.59L2134.05 2519.01ZM1606.6 1129.18L1591.91 1126.16L1606.6 1129.18ZM1844.7 1129.18L1859.36 1125.97L1844.7 1129.18ZM1505.65 1619.75L1490.96 1616.72L1490.96 1616.72L1505.65 1619.75ZM1952.25 1619.75L1966.9 1616.53L1966.9 1616.53L1952.25 1619.75ZM1444.52 1916.83L1429.82 1913.81L1444.52 1916.83ZM2017.38 1916.83L2032.04 1913.62L2032.04 1913.62L2017.38 1916.83ZM1781.3 839.957L1795.95 836.744L1781.3 839.957ZM1666.1 840.082L1680.79 843.106L1666.1 840.082ZM1725.37 817.098H1675.89V847.098H1725.37V817.098ZM1725.37 847.098H1771.53V817.098H1725.37V847.098ZM1740.37 832.098V623.522H1710.37V832.098H1740.37ZM1651.4 837.059L1591.91 1126.16L1621.29 1132.2L1680.79 843.106L1651.4 837.059ZM1710.37 832.098V1087.33H1740.37V832.098H1710.37ZM1611.59 1143.33L1730.36 1101.48L1720.39 1073.18L1601.62 1115.03L1611.59 1143.33ZM1766.64 843.169L1830.05 1132.39L1859.36 1125.97L1795.95 836.744L1766.64 843.169ZM1849.67 1115.03L1730.34 1073.17L1720.41 1101.48L1839.74 1143.34L1849.67 1115.03ZM1591.91 1126.16L1540.8 1374.53L1570.18 1380.57L1621.29 1132.2L1591.91 1126.16ZM1710.37 1087.33V1343.93H1740.37V1087.33H1710.37ZM1558.4 1392.27L1728.28 1358.65L1722.46 1329.22L1552.58 1362.84L1558.4 1392.27ZM1830.05 1132.39L1884.5 1380.76L1913.81 1374.34L1859.36 1125.97L1830.05 1132.39ZM1902 1362.82L1728.22 1329.2L1722.52 1358.66L1896.31 1392.28L1902 1362.82ZM1540.8 1374.53L1490.96 1616.72L1520.34 1622.77L1570.18 1380.57L1540.8 1374.53ZM1710.37 1343.93V1619.75H1740.37V1343.93H1710.37ZM1505.65 1634.75H1725.37V1604.75H1505.65V1634.75ZM1884.5 1380.76L1937.6 1622.96L1966.9 1616.53L1913.81 1374.34L1884.5 1380.76ZM1952.25 1604.75H1725.37V1634.75H1952.25V1604.75ZM1490.96 1616.72L1429.82 1913.81L1459.21 1919.85L1520.34 1622.77L1490.96 1616.72ZM1710.37 1619.75V2001.22H1740.37V1619.75H1710.37ZM1440.2 1931.19L1721.05 2015.59L1729.69 1986.85L1448.83 1902.46L1440.2 1931.19ZM1937.6 1622.96L2002.73 1920.04L2032.04 1913.62L1966.9 1616.53L1937.6 1622.96ZM2013.22 1902.42L1721.21 1986.81L1729.54 2015.63L2021.55 1931.24L2013.22 1902.42ZM1429.82 1913.81L1366.29 2222.55L1395.67 2228.6L1459.21 1919.85L1429.82 1913.81ZM1366.29 2222.55L1306.56 2512.77L1335.95 2518.82L1395.67 2228.6L1366.29 2222.55ZM1710.37 2001.22V2408.77H1740.37V2001.22H1710.37ZM1710.37 2408.77V2661.25H1740.37V2408.77H1710.37ZM1373.94 2238.82L1718.33 2422.01L1732.42 2395.52L1388.02 2212.33L1373.94 2238.82ZM2002.73 1920.04L2070.42 2228.79L2099.72 2222.36L2032.04 1913.62L2002.73 1920.04ZM2070.42 2228.79L2134.05 2519.01L2163.35 2512.59L2099.72 2222.36L2070.42 2228.79ZM2078.26 2212.21L1718.56 2395.4L1732.18 2422.13L2091.88 2238.94L2078.26 2212.21ZM1568.44 1385.13L1738.32 1094.91L1712.43 1079.75L1542.55 1369.97L1568.44 1385.13ZM1593.48 1136.44L1712.24 1351.19L1738.5 1336.67L1619.73 1121.92L1593.48 1136.44ZM1831.59 1121.9L1712.26 1336.65L1738.48 1351.22L1857.82 1136.47L1831.59 1121.9ZM1712.5 1095.03L1886.29 1385.26L1912.02 1369.84L1738.24 1079.62L1712.5 1095.03ZM1713.79 1353.46L1940.67 1629.27L1963.84 1610.22L1736.96 1334.4L1713.79 1353.46ZM1886.97 1368.81L1713.18 1611L1737.56 1628.49L1911.34 1386.3L1886.97 1368.81ZM1737.65 1611.13L1567.77 1368.94L1543.21 1386.16L1713.09 1628.36L1737.65 1611.13ZM1517.38 1629.09L1737.1 1353.28L1713.64 1334.59L1493.92 1610.4L1517.38 1629.09ZM1492.65 1627.23L1712.37 2008.71L1738.37 1993.73L1518.65 1612.26L1492.65 1627.23ZM1714.47 1609.44L1433.62 1906.52L1455.42 1927.13L1736.27 1630.05L1714.47 1609.44ZM1738.26 2008.89L1965.14 1627.41L1939.36 1612.08L1712.48 1993.55L1738.26 2008.89ZM1714.67 1630.26L2006.69 1927.34L2028.08 1906.31L1736.07 1609.23L1714.67 1630.26ZM1738.27 2416.42L2030.28 1924.49L2004.48 1909.17L1712.47 2401.11L1738.27 2416.42ZM1717.43 2013.95L2077.13 2238.3L2093.01 2212.85L1733.31 1988.49L1717.43 2013.95ZM1717.18 1988.65L1372.79 2213.01L1389.17 2238.14L1733.56 2013.79L1717.18 1988.65ZM1431.49 1924.27L1712.34 2416.2L1738.4 2401.33L1457.54 1909.39L1431.49 1924.27ZM1771.53 847.098C1769.18 847.098 1767.15 845.463 1766.64 843.169L1795.95 836.744C1793.43 825.273 1783.27 817.098 1771.53 817.098V847.098ZM1675.89 817.098C1664.03 817.098 1653.79 825.438 1651.4 837.059L1680.79 843.106C1680.31 845.43 1678.26 847.098 1675.89 847.098V817.098Z" fill="#002D72"/>
</g>
<ellipse cx="1724" cy="622.15" rx="109.777" ry="110.463" fill="#002D72"/>
<path d="M1474.26 443.077C1346.13 607.846 1331.79 696.264 1474.26 842.39" stroke="#002D72" stroke-width="30" stroke-linecap="round"/>
<path d="M1321.94 358C1131.48 592.414 1110.17 718.204 1321.94 926.094" stroke="#002D72" stroke-width="30" stroke-linecap="round"/>
<path d="M1973.74 841.017C2101.87 676.248 2116.21 587.83 1973.74 441.705" stroke="#002D72" stroke-width="30" stroke-linecap="round"/>
<path d="M2126.06 926.094C2316.52 691.68 2337.83 565.89 2126.06 358" stroke="#002D72" stroke-width="30" stroke-linecap="round"/>
</g>
<g filter="url(#filter8_i)">
<circle cx="1723.5" cy="1723.5" r="1693.5" stroke="#002D72" stroke-width="60"/>
</g>
<defs>
<filter id="filter0_i" x="1141.4" y="2660.67" width="528.059" height="156.751" filterUnits="userSpaceOnUse" color-interpolation-filters="sRGB">
<feFlood flood-opacity="0" result="BackgroundImageFix"/>
<feBlend mode="normal" in="SourceGraphic" in2="BackgroundImageFix" result="shape"/>
<feColorMatrix in="SourceAlpha" type="matrix" values="0 0 0 0 0 0 0 0 0 0 0 0 0 0 0 0 0 0 127 0" result="hardAlpha"/>
<feOffset dy="4"/>
<feGaussianBlur stdDeviation="2"/>
<feComposite in2="hardAlpha" operator="arithmetic" k2="-1" k3="1"/>
<feColorMatrix type="matrix" values="0 0 0 0 0 0 0 0 0 0 0 0 0 0 0 0 0 0 0.25 0"/>
<feBlend mode="normal" in2="shape" result="effect1_innerShadow"/>
</filter>
<filter id="filter1_i" x="1724.2" y="2710.8" width="338.496" height="460.449" filterUnits="userSpaceOnUse" color-interpolation-filters="sRGB">
<feFlood flood-opacity="0" result="BackgroundImageFix"/>
<feBlend mode="normal" in="SourceGraphic" in2="BackgroundImageFix" result="shape"/>
<feColorMatrix in="SourceAlpha" type="matrix" values="0 0 0 0 0 0 0 0 0 0 0 0 0 0 0 0 0 0 127 0" result="hardAlpha"/>
<feOffset dy="4"/>
<feGaussianBlur stdDeviation="2"/>
<feComposite in2="hardAlpha" operator="arithmetic" k2="-1" k3="1"/>
<feColorMatrix type="matrix" values="0 0 0 0 0 0 0 0 0 0 0 0 0 0 0 0 0 0 0.25 0"/>
<feBlend mode="normal" in2="shape" result="effect1_innerShadow"/>
</filter>
<filter id="filter2_i" x="1785.76" y="2655.62" width="546.549" height="75.4108" filterUnits="userSpaceOnUse" color-interpolation-filters="sRGB">
<feFlood flood-opacity="0" result="BackgroundImageFix"/>
<feBlend mode="normal" in="SourceGraphic" in2="BackgroundImageFix" result="shape"/>
<feColorMatrix in="SourceAlpha" type="matrix" values="0 0 0 0 0 0 0 0 0 0 0 0 0 0 0 0 0 0 127 0" result="hardAlpha"/>
<feOffset dy="4"/>
<feGaussianBlur stdDeviation="2"/>
<feComposite in2="hardAlpha" operator="arithmetic" k2="-1" k3="1"/>
<feColorMatrix type="matrix" values="0 0 0 0 0 0 0 0 0 0 0 0 0 0 0 0 0 0 0.25 0"/>
<feBlend mode="normal" in2="shape" result="effect1_innerShadow"/>
</filter>
<filter id="filter3_i" x="1085" y="2660.67" width="244.398" height="248.399" filterUnits="userSpaceOnUse" color-interpolation-filters="sRGB">
<feFlood flood-opacity="0" result="BackgroundImageFix"/>
<feBlend mode="normal" in="SourceGraphic" in2="BackgroundImageFix" result="shape"/>
<feColorMatrix in="SourceAlpha" type="matrix" values="0 0 0 0 0 0 0 0 0 0 0 0 0 0 0 0 0 0 127 0" result="hardAlpha"/>
<feOffset dy="4"/>
<feGaussianBlur stdDeviation="2"/>
<feComposite in2="hardAlpha" operator="arithmetic" k2="-1" k3="1"/>
<feColorMatrix type="matrix" values="0 0 0 0 0 0 0 0 0 0 0 0 0 0 0 0 0 0 0.25 0"/>
<feBlend mode="normal" in2="shape" result="effect1_innerShadow"/>
</filter>
<filter id="filter4_i" x="1887.13" y="2980.26" width="244.398" height="248.399" filterUnits="userSpaceOnUse" color-interpolation-filters="sRGB">
<feFlood flood-opacity="0" result="BackgroundImageFix"/>
<feBlend mode="normal" in="SourceGraphic" in2="BackgroundImageFix" result="shape"/>
<feColorMatrix in="SourceAlpha" type="matrix" values="0 0 0 0 0 0 0 0 0 0 0 0 0 0 0 0 0 0 127 0" result="hardAlpha"/>
<feOffset dy="4"/>
<feGaussianBlur stdDeviation="2"/>
<feComposite in2="hardAlpha" operator="arithmetic" k2="-1" k3="1"/>
<feColorMatrix type="matrix" values="0 0 0 0 0 0 0 0 0 0 0 0 0 0 0 0 0 0 0.25 0"/>
<feBlend mode="normal" in2="shape" result="effect1_innerShadow"/>
</filter>
<filter id="filter5_i" x="2244.33" y="2598" width="244.398" height="235.865" filterUnits="userSpaceOnUse" color-interpolation-filters="sRGB">
<feFlood flood-opacity="0" result="BackgroundImageFix"/>
<feBlend mode="normal" in="SourceGraphic" in2="BackgroundImageFix" result="shape"/>
<feColorMatrix in="SourceAlpha" type="matrix" values="0 0 0 0 0 0 0 0 0 0 0 0 0 0 0 0 0 0 127 0" result="hardAlpha"/>
<feOffset dy="4"/>
<feGaussianBlur stdDeviation="2"/>
<feComposite in2="hardAlpha" operator="arithmetic" k2="-1" k3="1"/>
<feColorMatrix type="matrix" values="0 0 0 0 0 0 0 0 0 0 0 0 0 0 0 0 0 0 0.25 0"/>
<feBlend mode="normal" in2="shape" result="effect1_innerShadow"/>
</filter>
<filter id="filter6_d" x="1152" y="343" width="1144" height="2341.25" filterUnits="userSpaceOnUse" color-interpolation-filters="sRGB">
<feFlood flood-opacity="0" result="BackgroundImageFix"/>
<feColorMatrix in="SourceAlpha" type="matrix" values="0 0 0 0 0 0 0 0 0 0 0 0 0 0 0 0 0 0 127 0" result="hardAlpha"/>
<feOffset dy="4"/>
<feGaussianBlur stdDeviation="2"/>
<feComposite in2="hardAlpha" operator="out"/>
<feColorMatrix type="matrix" values="0 0 0 0 0 0 0 0 0 0 0 0 0 0 0 0 0 0 0.25 0"/>
<feBlend mode="normal" in2="BackgroundImageFix" result="effect1_dropShadow"/>
<feBlend mode="normal" in="SourceGraphic" in2="effect1_dropShadow" result="shape"/>
</filter>
<filter id="filter7_i" x="1306.25" y="623.522" width="857.449" height="2056.73" filterUnits="userSpaceOnUse" color-interpolation-filters="sRGB">
<feFlood flood-opacity="0" result="BackgroundImageFix"/>
<feBlend mode="normal" in="SourceGraphic" in2="BackgroundImageFix" result="shape"/>
<feColorMatrix in="SourceAlpha" type="matrix" values="0 0 0 0 0 0 0 0 0 0 0 0 0 0 0 0 0 0 127 0" result="hardAlpha"/>
<feOffset dy="4"/>
<feGaussianBlur stdDeviation="2"/>
<feComposite in2="hardAlpha" operator="arithmetic" k2="-1" k3="1"/>
<feColorMatrix type="matrix" values="0 0 0 0 0 0 0 0 0 0 0 0 0 0 0 0 0 0 0.25 0"/>
<feBlend mode="normal" in2="shape" result="effect1_innerShadow"/>
</filter>
<filter id="filter8_i" x="0" y="0" width="3447" height="3451" filterUnits="userSpaceOnUse" color-interpolation-filters="sRGB">
<feFlood flood-opacity="0" result="BackgroundImageFix"/>
<feBlend mode="normal" in="SourceGraphic" in2="BackgroundImageFix" result="shape"/>
<feColorMatrix in="SourceAlpha" type="matrix" values="0 0 0 0 0 0 0 0 0 0 0 0 0 0 0 0 0 0 127 0" result="hardAlpha"/>
<feOffset dy="4"/>
<feGaussianBlur stdDeviation="2"/>
<feComposite in2="hardAlpha" operator="arithmetic" k2="-1" k3="1"/>
<feColorMatrix type="matrix" values="0 0 0 0 0 0 0 0 0 0 0 0 0 0 0 0 0 0 0.25 0"/>
<feBlend mode="normal" in2="shape" result="effect1_innerShadow"/>
</filter>
</defs>
</svg>
