<svg width="2463" height="2463" viewBox="0 0 2463 2463" fill="none" xmlns="http://www.w3.org/2000/svg">
<g filter="url(#filter0_i)">
<path d="M1651.2 737.643C1662.97 737.643 1674.26 742.319 1682.57 750.638C1690.89 758.957 1695.57 770.241 1695.57 782.005V1146.48C1695.57 1146.48 1502.31 1135.69 1423.44 1207.02C1352.15 1271.5 1321.67 1447.43 1321.67 1447.43H630.886V782.005C630.886 770.241 635.56 758.957 643.879 750.638C652.198 742.319 663.482 737.643 675.249 737.643H1651.2ZM675.249 648.921C639.952 648.921 606.102 662.941 581.142 687.901C556.185 712.858 542.164 746.709 542.164 782.005V1536.15H1339.71C1339.71 1536.15 1356.22 1314.35 1446.63 1231.5C1544.36 1141.94 1784.29 1187.7 1784.29 1187.7V782.005C1784.29 746.709 1770.27 712.858 1745.31 687.901C1720.35 662.941 1686.5 648.921 1651.2 648.921H675.249ZM453.439 1580.52H1407.98C1407.98 1615.81 1411.85 1611.51 1446.63 1651.45C1498.15 1690.09 1564.37 1713.6 1529.07 1713.6H586.524C551.228 1713.6 517.377 1699.58 492.42 1674.62C467.46 1649.66 453.439 1615.81 453.439 1580.52Z" fill="#002D72"/>
</g>
<g filter="url(#filter1_i)">
<path d="M728.466 1182.55C719.07 1182.55 710.06 1185.49 703.416 1190.72C696.774 1195.96 693.041 1203.06 693.041 1210.46C693.041 1217.86 696.774 1224.96 703.416 1230.2C710.06 1235.43 719.07 1238.37 728.466 1238.37H1082.72C1092.11 1238.37 1101.12 1235.43 1107.77 1230.2C1114.41 1224.96 1118.14 1217.86 1118.14 1210.46C1118.14 1203.06 1114.41 1195.96 1107.77 1190.72C1101.12 1185.49 1092.11 1182.55 1082.72 1182.55H728.466ZM728.466 1294.19C719.07 1294.19 710.06 1297.13 703.416 1302.37C696.774 1307.6 693.041 1314.7 693.041 1322.1C693.041 1329.5 696.774 1336.6 703.416 1341.84C710.06 1347.07 719.07 1350.01 728.466 1350.01H1082.72C1092.11 1350.01 1101.12 1347.07 1107.77 1341.84C1114.41 1336.6 1118.14 1329.5 1118.14 1322.1C1118.14 1314.7 1114.41 1307.6 1107.77 1302.37C1101.12 1297.13 1092.11 1294.19 1082.72 1294.19H728.466Z" fill="#002D72"/>
</g>
<g filter="url(#filter2_i)">
<path d="M728.466 945.524C719.07 945.524 710.06 948.464 703.416 953.699C696.774 958.934 693.041 966.032 693.041 973.434C693.041 980.838 696.774 987.936 703.416 993.171C710.06 998.404 719.07 1001.35 728.466 1001.35H1082.72C1092.11 1001.35 1101.12 998.404 1107.77 993.171C1114.41 987.936 1118.14 980.838 1118.14 973.434C1118.14 966.032 1114.41 958.934 1107.77 953.699C1101.12 948.464 1092.11 945.524 1082.72 945.524H728.466ZM728.466 1057.17C719.07 1057.17 710.06 1060.11 703.416 1065.34C696.774 1070.58 693.041 1077.67 693.041 1085.08C693.041 1092.48 696.774 1099.58 703.416 1104.81C710.06 1110.05 719.07 1112.99 728.466 1112.99H1082.72C1092.11 1112.99 1101.12 1110.05 1107.77 1104.81C1114.41 1099.58 1118.14 1092.48 1118.14 1085.08C1118.14 1077.67 1114.41 1070.58 1107.77 1065.34C1101.12 1060.11 1092.11 1057.17 1082.72 1057.17H728.466Z" fill="#002D72"/>
</g>
<g filter="url(#filter3_i)">
<path d="M1859.84 1612.55C1904.43 1551.7 1924.4 1476.25 1915.76 1401.31C1907.12 1326.37 1870.5 1257.45 1813.22 1208.35C1755.95 1159.25 1682.25 1133.58 1606.87 1136.49C1531.48 1139.39 1459.97 1170.65 1406.65 1224.02C1353.33 1277.38 1322.12 1348.91 1319.26 1424.3C1316.41 1499.68 1342.13 1573.36 1391.28 1630.6C1440.42 1687.84 1509.36 1724.41 1584.31 1733C1659.26 1741.59 1734.69 1721.56 1795.5 1676.93H1795.46C1796.84 1678.77 1798.31 1680.52 1799.97 1682.22L1977.27 1859.53C1985.91 1868.17 1997.62 1873.02 2009.84 1873.03C2022.06 1873.03 2033.77 1868.19 2042.41 1859.55C2051.06 1850.91 2055.91 1839.2 2055.92 1826.98C2055.92 1814.77 2051.07 1803.05 2042.44 1794.41L1865.13 1617.11C1863.49 1615.44 1861.72 1613.9 1859.84 1612.5V1612.55ZM1871.72 1435.52C1871.72 1468.79 1865.17 1501.72 1852.44 1532.45C1839.71 1563.18 1821.06 1591.1 1797.53 1614.62C1774.01 1638.14 1746.09 1656.8 1715.36 1669.53C1684.63 1682.26 1651.7 1688.81 1618.43 1688.81C1585.17 1688.81 1552.23 1682.26 1521.5 1669.53C1490.77 1656.8 1462.85 1638.14 1439.33 1614.62C1415.81 1591.1 1397.15 1563.18 1384.42 1532.45C1371.7 1501.72 1365.14 1468.79 1365.14 1435.52C1365.14 1368.35 1391.83 1303.92 1439.33 1256.42C1486.83 1208.92 1551.26 1182.23 1618.43 1182.23C1685.61 1182.23 1750.03 1208.92 1797.53 1256.42C1845.04 1303.92 1871.72 1368.35 1871.72 1435.52Z" fill="#002D72"/>
</g>
<g filter="url(#filter4_i)">
<path d="M1630.83 1379.14C1623.83 1379.14 1616.89 1380.52 1610.43 1383.2C1603.96 1385.88 1598.08 1389.8 1593.13 1394.75C1588.18 1399.71 1584.25 1405.58 1581.57 1412.05C1578.89 1418.52 1577.51 1425.45 1577.51 1432.45C1577.51 1439.46 1578.89 1446.39 1581.57 1452.86C1584.25 1459.33 1588.18 1465.2 1593.13 1470.16C1598.08 1475.11 1603.96 1479.03 1610.43 1481.71C1616.89 1484.39 1623.83 1485.77 1630.83 1485.77C1644.97 1485.77 1658.53 1480.15 1668.53 1470.16C1678.53 1460.16 1684.15 1446.6 1684.15 1432.45C1684.15 1418.31 1678.53 1404.75 1668.53 1394.75C1658.53 1384.75 1644.97 1379.14 1630.83 1379.14ZM1593.94 1432.45C1593.94 1422.67 1597.82 1413.29 1604.74 1406.37C1611.66 1399.45 1621.05 1395.56 1630.83 1395.56C1640.61 1395.56 1650 1399.45 1656.91 1406.37C1663.83 1413.29 1667.72 1422.67 1667.72 1432.45C1667.72 1442.24 1663.83 1451.62 1656.91 1458.54C1650 1465.46 1640.61 1469.35 1630.83 1469.35C1621.05 1469.35 1611.66 1465.46 1604.74 1458.54C1597.82 1451.62 1593.94 1442.24 1593.94 1432.45Z" fill="#002D72"/>
<path d="M1660.34 1323.11C1651.68 1293.71 1609.99 1293.71 1601.34 1323.11L1599.79 1328.35C1599.19 1330.4 1598.13 1332.29 1596.7 1333.89C1595.27 1335.48 1593.5 1336.73 1591.53 1337.55C1589.55 1338.37 1587.41 1338.73 1585.28 1338.62C1583.14 1338.51 1581.06 1337.92 1579.18 1336.89L1574.38 1334.27C1547.44 1319.61 1517.99 1349.08 1532.66 1376L1535.27 1380.8C1536.3 1382.68 1536.89 1384.76 1537 1386.9C1537.11 1389.03 1536.75 1391.17 1535.93 1393.15C1535.11 1395.12 1533.86 1396.89 1532.27 1398.32C1530.67 1399.75 1528.78 1400.81 1526.73 1401.41L1521.49 1402.96C1492.09 1411.61 1492.09 1453.3 1521.49 1461.96L1526.73 1463.5C1528.78 1464.1 1530.67 1465.16 1532.27 1466.59C1533.86 1468.02 1535.11 1469.79 1535.93 1471.77C1536.75 1473.74 1537.11 1475.88 1537 1478.01C1536.89 1480.15 1536.3 1482.23 1535.27 1484.11L1532.65 1488.91C1517.99 1515.85 1547.44 1545.31 1574.38 1530.63L1579.18 1528.02C1581.06 1527 1583.14 1526.41 1585.28 1526.29C1587.41 1526.18 1589.55 1526.54 1591.53 1527.36C1593.5 1528.18 1595.27 1529.43 1596.7 1531.02C1598.13 1532.62 1599.19 1534.51 1599.79 1536.56L1601.34 1541.8C1609.99 1571.2 1651.68 1571.2 1660.34 1541.8L1661.88 1536.56C1662.48 1534.51 1663.54 1532.62 1664.97 1531.02C1666.4 1529.43 1668.17 1528.18 1670.15 1527.36C1672.12 1526.54 1674.26 1526.18 1676.39 1526.29C1678.53 1526.41 1680.61 1527 1682.49 1528.02L1687.29 1530.65C1714.23 1545.31 1743.69 1515.83 1729.01 1488.91L1726.4 1484.11C1725.38 1482.23 1724.79 1480.15 1724.67 1478.01C1724.56 1475.88 1724.92 1473.74 1725.74 1471.77C1726.56 1469.79 1727.81 1468.02 1729.4 1466.59C1731 1465.16 1732.89 1464.1 1734.94 1463.5L1740.18 1461.96C1769.58 1453.3 1769.58 1411.61 1740.18 1402.96L1734.94 1401.41C1732.89 1400.81 1731 1399.75 1729.4 1398.32C1727.81 1396.89 1726.56 1395.12 1725.74 1393.15C1724.92 1391.17 1724.56 1389.03 1724.67 1386.9C1724.79 1384.76 1725.38 1382.68 1726.4 1380.8L1729.03 1376C1743.69 1349.06 1714.21 1319.61 1687.29 1334.28L1682.49 1336.89C1680.61 1337.92 1678.53 1338.51 1676.39 1338.62C1674.26 1338.73 1672.12 1338.37 1670.15 1337.55C1668.17 1336.73 1666.4 1335.48 1664.97 1333.89C1663.54 1332.29 1662.48 1330.4 1661.88 1328.35L1660.34 1323.11ZM1617.09 1327.76C1621.13 1314.05 1640.54 1314.05 1644.58 1327.76L1646.13 1333C1647.42 1337.4 1649.69 1341.46 1652.76 1344.88C1655.83 1348.29 1659.63 1350.97 1663.87 1352.73C1668.11 1354.48 1672.69 1355.27 1677.27 1355.02C1681.86 1354.78 1686.33 1353.51 1690.36 1351.32L1695.14 1348.69C1707.69 1341.87 1721.42 1355.59 1714.59 1368.15L1711.98 1372.95C1709.78 1376.98 1708.52 1381.45 1708.28 1386.03C1708.04 1390.62 1708.82 1395.19 1710.58 1399.43C1712.34 1403.67 1715.02 1407.47 1718.43 1410.53C1721.85 1413.6 1725.91 1415.87 1730.31 1417.17L1735.53 1418.71C1749.25 1422.75 1749.25 1442.16 1735.53 1446.2L1730.29 1447.75C1725.89 1449.05 1721.83 1451.31 1718.42 1454.38C1715 1457.45 1712.32 1461.25 1710.56 1465.49C1708.81 1469.73 1708.02 1474.31 1708.27 1478.9C1708.51 1483.48 1709.78 1487.95 1711.98 1491.98L1714.61 1496.76C1721.42 1509.31 1707.71 1523.04 1695.14 1516.21L1690.36 1513.6C1686.33 1511.4 1681.86 1510.13 1677.27 1509.89C1672.69 1509.65 1668.11 1510.43 1663.86 1512.19C1659.62 1513.95 1655.83 1516.63 1652.76 1520.05C1649.69 1523.46 1647.42 1527.52 1646.13 1531.93L1644.58 1537.15C1640.54 1550.87 1621.13 1550.87 1617.09 1537.15L1615.55 1531.91C1614.24 1527.51 1611.98 1523.46 1608.91 1520.04C1605.84 1516.63 1602.05 1513.95 1597.81 1512.19C1593.57 1510.44 1588.99 1509.65 1584.41 1509.9C1579.83 1510.14 1575.36 1511.4 1571.33 1513.6L1566.53 1516.23C1553.98 1523.04 1540.25 1509.33 1547.08 1496.76L1549.7 1491.98C1551.9 1487.95 1553.16 1483.48 1553.41 1478.89C1553.66 1474.3 1552.87 1469.72 1551.12 1465.48C1549.36 1461.23 1546.68 1457.44 1543.26 1454.37C1539.85 1451.3 1535.79 1449.03 1531.38 1447.73L1526.14 1446.19C1512.43 1442.15 1512.43 1422.73 1526.14 1418.69L1531.38 1417.15C1535.78 1415.85 1539.83 1413.58 1543.24 1410.52C1546.65 1407.45 1549.33 1403.66 1551.09 1399.42C1552.84 1395.18 1553.63 1390.61 1553.39 1386.02C1553.15 1381.44 1551.89 1376.98 1549.7 1372.95L1547.07 1368.15C1540.25 1355.6 1553.96 1341.87 1566.53 1348.7L1571.33 1351.32C1575.36 1353.51 1579.83 1354.77 1584.41 1355.02C1588.99 1355.26 1593.57 1354.47 1597.81 1352.72C1602.05 1350.96 1605.84 1348.28 1608.91 1344.87C1611.98 1341.46 1614.24 1337.4 1615.55 1333L1617.09 1327.76Z" fill="#002D72"/>
</g>
<g filter="url(#filter5_i)">
<path d="M1270.43 917.625C1272.37 915.7 1275 914.615 1277.74 914.608C1280.47 914.6 1283.1 915.669 1285.06 917.583C1287.01 919.498 1288.13 922.105 1288.18 924.838C1288.23 927.575 1287.19 930.218 1285.31 932.197L1229.87 1001.45C1228.91 1002.48 1227.76 1003.3 1226.48 1003.87C1225.21 1004.45 1223.83 1004.75 1222.43 1004.78C1221.03 1004.8 1219.64 1004.55 1218.34 1004.03C1217.04 1003.5 1215.86 1002.72 1214.87 1001.73L1178.14 965.006C1177.11 964.053 1176.29 962.904 1175.72 961.629C1175.15 960.351 1174.85 958.973 1174.82 957.576C1174.8 956.177 1175.05 954.789 1175.58 953.493C1176.1 952.197 1176.88 951.019 1177.87 950.03C1178.86 949.043 1180.04 948.263 1181.34 947.74C1182.63 947.217 1184.02 946.959 1185.42 946.985C1186.82 947.008 1188.2 947.315 1189.47 947.884C1190.75 948.453 1191.9 949.273 1192.86 950.295L1221.94 979.344L1270.17 917.929C1270.25 917.823 1270.35 917.72 1270.44 917.625H1270.43Z" fill="#002D72"/>
</g>
<g filter="url(#filter6_i)">
<path d="M1270.43 1025.83C1272.37 1023.91 1275 1022.82 1277.74 1022.81C1280.47 1022.81 1283.1 1023.88 1285.06 1025.79C1287.01 1027.7 1288.13 1030.31 1288.18 1033.05C1288.23 1035.78 1287.19 1038.42 1285.31 1040.4L1229.87 1109.66C1228.91 1110.69 1227.76 1111.51 1226.48 1112.08C1225.21 1112.65 1223.83 1112.96 1222.43 1112.98C1221.03 1113.01 1219.64 1112.76 1218.34 1112.23C1217.04 1111.71 1215.86 1110.93 1214.87 1109.94L1178.14 1073.21C1177.11 1072.26 1176.29 1071.11 1175.72 1069.84C1175.15 1068.56 1174.85 1067.18 1174.82 1065.78C1174.8 1064.38 1175.05 1063 1175.58 1061.7C1176.1 1060.4 1176.88 1059.23 1177.87 1058.24C1178.86 1057.25 1180.04 1056.47 1181.34 1055.95C1182.63 1055.42 1184.02 1055.17 1185.42 1055.19C1186.82 1055.22 1188.2 1055.52 1189.47 1056.09C1190.75 1056.66 1191.9 1057.48 1192.86 1058.5L1221.94 1087.55L1270.17 1026.14C1270.25 1026.03 1270.35 1025.93 1270.44 1025.83H1270.43Z" fill="#002D72"/>
</g>
<g filter="url(#filter7_i)">
<path d="M1231.5 2416.63C1891.72 2416.63 2426.93 1881.41 2426.93 1221.19C2426.93 560.976 1891.72 25.7635 1231.5 25.7635C571.281 25.7635 36.0688 560.976 36.0688 1221.19C36.0688 1881.41 571.281 2416.63 1231.5 2416.63Z" stroke="#002D72" stroke-width="40"/>
</g>
<defs>
<filter id="filter0_i" x="453.439" y="648.921" width="1330.85" height="1068.68" filterUnits="userSpaceOnUse" color-interpolation-filters="sRGB">
<feFlood flood-opacity="0" result="BackgroundImageFix"/>
<feBlend mode="normal" in="SourceGraphic" in2="BackgroundImageFix" result="shape"/>
<feColorMatrix in="SourceAlpha" type="matrix" values="0 0 0 0 0 0 0 0 0 0 0 0 0 0 0 0 0 0 127 0" result="hardAlpha"/>
<feOffset dy="4"/>
<feGaussianBlur stdDeviation="2"/>
<feComposite in2="hardAlpha" operator="arithmetic" k2="-1" k3="1"/>
<feColorMatrix type="matrix" values="0 0 0 0 0 0 0 0 0 0 0 0 0 0 0 0 0 0 0.25 0"/>
<feBlend mode="normal" in2="shape" result="effect1_innerShadow"/>
</filter>
<filter id="filter1_i" x="693.041" y="1182.55" width="425.099" height="171.463" filterUnits="userSpaceOnUse" color-interpolation-filters="sRGB">
<feFlood flood-opacity="0" result="BackgroundImageFix"/>
<feBlend mode="normal" in="SourceGraphic" in2="BackgroundImageFix" result="shape"/>
<feColorMatrix in="SourceAlpha" type="matrix" values="0 0 0 0 0 0 0 0 0 0 0 0 0 0 0 0 0 0 127 0" result="hardAlpha"/>
<feOffset dy="4"/>
<feGaussianBlur stdDeviation="2"/>
<feComposite in2="hardAlpha" operator="arithmetic" k2="-1" k3="1"/>
<feColorMatrix type="matrix" values="0 0 0 0 0 0 0 0 0 0 0 0 0 0 0 0 0 0 0.25 0"/>
<feBlend mode="normal" in2="shape" result="effect1_innerShadow"/>
</filter>
<filter id="filter2_i" x="693.041" y="945.524" width="425.099" height="171.463" filterUnits="userSpaceOnUse" color-interpolation-filters="sRGB">
<feFlood flood-opacity="0" result="BackgroundImageFix"/>
<feBlend mode="normal" in="SourceGraphic" in2="BackgroundImageFix" result="shape"/>
<feColorMatrix in="SourceAlpha" type="matrix" values="0 0 0 0 0 0 0 0 0 0 0 0 0 0 0 0 0 0 127 0" result="hardAlpha"/>
<feOffset dy="4"/>
<feGaussianBlur stdDeviation="2"/>
<feComposite in2="hardAlpha" operator="arithmetic" k2="-1" k3="1"/>
<feColorMatrix type="matrix" values="0 0 0 0 0 0 0 0 0 0 0 0 0 0 0 0 0 0 0.25 0"/>
<feBlend mode="normal" in2="shape" result="effect1_innerShadow"/>
</filter>
<filter id="filter3_i" x="1319.05" y="1136.27" width="736.867" height="740.762" filterUnits="userSpaceOnUse" color-interpolation-filters="sRGB">
<feFlood flood-opacity="0" result="BackgroundImageFix"/>
<feBlend mode="normal" in="SourceGraphic" in2="BackgroundImageFix" result="shape"/>
<feColorMatrix in="SourceAlpha" type="matrix" values="0 0 0 0 0 0 0 0 0 0 0 0 0 0 0 0 0 0 127 0" result="hardAlpha"/>
<feOffset dy="4"/>
<feGaussianBlur stdDeviation="2"/>
<feComposite in2="hardAlpha" operator="arithmetic" k2="-1" k3="1"/>
<feColorMatrix type="matrix" values="0 0 0 0 0 0 0 0 0 0 0 0 0 0 0 0 0 0 0.25 0"/>
<feBlend mode="normal" in2="shape" result="effect1_innerShadow"/>
</filter>
<filter id="filter4_i" x="1499.44" y="1301.06" width="262.789" height="266.789" filterUnits="userSpaceOnUse" color-interpolation-filters="sRGB">
<feFlood flood-opacity="0" result="BackgroundImageFix"/>
<feBlend mode="normal" in="SourceGraphic" in2="BackgroundImageFix" result="shape"/>
<feColorMatrix in="SourceAlpha" type="matrix" values="0 0 0 0 0 0 0 0 0 0 0 0 0 0 0 0 0 0 127 0" result="hardAlpha"/>
<feOffset dy="4"/>
<feGaussianBlur stdDeviation="2"/>
<feComposite in2="hardAlpha" operator="arithmetic" k2="-1" k3="1"/>
<feColorMatrix type="matrix" values="0 0 0 0 0 0 0 0 0 0 0 0 0 0 0 0 0 0 0.25 0"/>
<feBlend mode="normal" in2="shape" result="effect1_innerShadow"/>
</filter>
<filter id="filter5_i" x="1174.82" y="914.608" width="113.358" height="94.1718" filterUnits="userSpaceOnUse" color-interpolation-filters="sRGB">
<feFlood flood-opacity="0" result="BackgroundImageFix"/>
<feBlend mode="normal" in="SourceGraphic" in2="BackgroundImageFix" result="shape"/>
<feColorMatrix in="SourceAlpha" type="matrix" values="0 0 0 0 0 0 0 0 0 0 0 0 0 0 0 0 0 0 127 0" result="hardAlpha"/>
<feOffset dy="4"/>
<feGaussianBlur stdDeviation="2"/>
<feComposite in2="hardAlpha" operator="arithmetic" k2="-1" k3="1"/>
<feColorMatrix type="matrix" values="0 0 0 0 0 0 0 0 0 0 0 0 0 0 0 0 0 0 0.25 0"/>
<feBlend mode="normal" in2="shape" result="effect1_innerShadow"/>
</filter>
<filter id="filter6_i" x="1174.82" y="1022.81" width="113.358" height="94.1718" filterUnits="userSpaceOnUse" color-interpolation-filters="sRGB">
<feFlood flood-opacity="0" result="BackgroundImageFix"/>
<feBlend mode="normal" in="SourceGraphic" in2="BackgroundImageFix" result="shape"/>
<feColorMatrix in="SourceAlpha" type="matrix" values="0 0 0 0 0 0 0 0 0 0 0 0 0 0 0 0 0 0 127 0" result="hardAlpha"/>
<feOffset dy="4"/>
<feGaussianBlur stdDeviation="2"/>
<feComposite in2="hardAlpha" operator="arithmetic" k2="-1" k3="1"/>
<feColorMatrix type="matrix" values="0 0 0 0 0 0 0 0 0 0 0 0 0 0 0 0 0 0 0.25 0"/>
<feBlend mode="normal" in2="shape" result="effect1_innerShadow"/>
</filter>
<filter id="filter7_i" x="16.0688" y="5.76355" width="2430.86" height="2434.86" filterUnits="userSpaceOnUse" color-interpolation-filters="sRGB">
<feFlood flood-opacity="0" result="BackgroundImageFix"/>
<feBlend mode="normal" in="SourceGraphic" in2="BackgroundImageFix" result="shape"/>
<feColorMatrix in="SourceAlpha" type="matrix" values="0 0 0 0 0 0 0 0 0 0 0 0 0 0 0 0 0 0 127 0" result="hardAlpha"/>
<feOffset dy="4"/>
<feGaussianBlur stdDeviation="2"/>
<feComposite in2="hardAlpha" operator="arithmetic" k2="-1" k3="1"/>
<feColorMatrix type="matrix" values="0 0 0 0 0 0 0 0 0 0 0 0 0 0 0 0 0 0 0.25 0"/>
<feBlend mode="normal" in2="shape" result="effect1_innerShadow"/>
</filter>
</defs>
</svg>
