<svg width="1941" height="1941" viewBox="0 0 1941 1941" fill="none" xmlns="http://www.w3.org/2000/svg">
<g filter="url(#filter0_i)">
<circle cx="970.5" cy="970.5" r="955.5" stroke="#002D72" stroke-width="30"/>
</g>
<g filter="url(#filter1_i)">
<g filter="url(#filter2_d)">
<path d="M752.62 464.891C675.415 486.164 598.738 509.303 522.65 534.28C515.697 536.527 509.526 540.685 504.826 546.274C500.119 551.864 497.084 558.663 496.061 565.89C494.554 577.196 493.215 588.399 492.037 599.5C491.273 606.71 609.629 607.876 609 615C612 663 618.866 704.373 620.5 749.5C620.995 763.187 566.007 769.186 567 782.5C567.312 786.68 618.215 803.347 618.5 807.5C621.753 854.868 617.331 889.448 616.5 933C616.368 939.901 566.649 957.734 566.5 964.5C566.363 970.718 616.529 978.885 616.5 985C616.262 1035.78 608.435 1077.2 610.5 1120.5C610.838 1127.6 566.964 1138.6 567.5 1145.5C568.117 1153.45 614.521 1164.29 616.5 1172C626.688 1211.7 606.188 1230.94 623.076 1265C628.456 1275.85 621.421 1275.08 629 1285C681.408 1354.26 793.589 1440.97 864.081 1491.71C892.127 1511.49 916.938 1525.76 936.473 1534.92C946.2 1539.54 954.143 1542.62 960.22 1544.48C962.881 1545.41 965.622 1546.09 968.41 1546.51C971.164 1546.06 973.879 1545.38 976.519 1544.48C982.677 1542.62 990.619 1539.54 1000.35 1534.92C1019.8 1525.76 1044.69 1511.4 1072.74 1491.71C1143.23 1440.97 1205.72 1379.95 1258.13 1310.7C1325.26 1222.89 1386.51 1110.37 1421.34 972C1423.09 965.065 1351.89 946.565 1353.5 939.5C1353.5 880 1359.5 842.5 1356.5 777C1356.87 769.228 1450.85 759.395 1451.06 751.5C1452.58 693.011 1449.46 631.158 1440.76 565.89C1439.74 558.656 1436.71 551.857 1432.01 546.268C1427.31 540.679 1421.12 536.52 1414.17 534.28C1361.4 517.012 1272.32 488.885 1184.2 464.971C1094.22 440.569 1011.45 422.491 968.41 422.491C925.448 422.491 842.601 440.569 752.62 464.971V464.891ZM731.059 381.395C819.014 357.481 912.478 336 968.41 336C1024.34 336 1117.81 357.481 1205.76 381.395C1295.74 405.717 1386.45 434.492 1439.79 451.921C1462.09 459.282 1481.86 472.793 1496.83 490.884C1511.8 508.982 1521.36 530.931 1524.41 554.217C1533.62 623.384 1535.47 695.138 1533.97 757.5C1533.78 765.388 1366.84 769.221 1366.5 777C1355.63 840 1359.97 874.5 1359.97 946.5C1358.5 953.556 1511.57 957.556 1509.97 964.5C1473.17 1124.93 1401.89 1262.93 1324.6 1364.03C1266.92 1440.15 1198.14 1507.18 1120.57 1562.88C1093.74 1582.16 1065.32 1599.1 1035.61 1613.55C1012.92 1624.25 988.513 1633 968.41 1633C948.306 1633 923.991 1624.25 901.206 1613.55C871.502 1599.1 843.082 1582.16 816.253 1562.88C738.68 1507.18 669.906 1440.15 612.223 1364.03C605.222 1354.88 601.5 1333.5 599 1322C612.223 1312 615.954 1299.55 616.5 1285C617.909 1247.41 629 1217.5 605 1174.5C606.278 1166.23 549.14 1153.89 551 1145.5C552.904 1136.91 604.785 1125.24 606.5 1116.5C614.878 1073.82 606.56 1038.93 611 991C611.828 982.062 555.197 973.561 556 964.5C556.601 957.719 604.074 946.886 604.5 940C607.263 895.303 615.647 855.735 613 807.5C612.772 803.346 556.787 789.179 556.5 785C555.583 771.665 613.457 765.165 613 751.5C611.482 706.152 616 669 610.991 620C611.576 612.872 406.439 606.705 407.15 599.5C408.625 584.572 410.373 569.477 412.404 554.217C415.46 530.931 425.02 508.982 439.989 490.884C454.958 472.793 474.727 459.282 497.03 451.921C574.463 426.529 652.497 403.016 731.059 381.395Z" fill="#002D72"/>
</g>
<path d="M887.426 1227.7C887.426 1206.2 895.963 1185.58 911.166 1170.38C926.369 1155.18 946.987 1146.64 968.488 1146.64C989.982 1146.64 1010.61 1155.18 1025.8 1170.38C1041.01 1185.58 1049.55 1206.2 1049.55 1227.7C1049.55 1249.2 1041.01 1269.81 1025.8 1285.02C1010.61 1300.22 989.982 1308.76 968.488 1308.76C946.987 1308.76 926.369 1300.22 911.166 1285.02C895.963 1269.81 887.426 1249.2 887.426 1227.7ZM895.449 740.918C894.372 730.689 895.455 720.353 898.624 710.572C901.8 700.791 906.994 691.786 913.874 684.138C920.753 676.496 929.164 670.386 938.557 666.2C947.95 662.015 958.119 659.856 968.408 659.856C978.69 659.856 988.859 662.015 998.252 666.2C1007.65 670.386 1016.06 676.496 1022.94 684.138C1029.82 691.786 1035.01 700.791 1038.19 710.572C1041.36 720.353 1042.44 730.689 1041.36 740.918L1012.99 1025.2C1011.84 1036.23 1006.64 1046.43 998.406 1053.85C990.176 1061.26 979.486 1065.37 968.408 1065.37C957.323 1065.37 946.633 1061.26 938.403 1053.85C930.167 1046.43 924.972 1036.23 923.822 1025.2L895.449 740.918Z" fill="#002D72"/>
</g>
<g filter="url(#filter3_d)">
<rect x="306" y="610" width="316" height="162" rx="50" stroke="#002D72" stroke-width="20" shape-rendering="crispEdges"/>
</g>
<g filter="url(#filter4_d)">
<rect x="306" y="792" width="316" height="162" rx="50" stroke="#002D72" stroke-width="20" shape-rendering="crispEdges"/>
</g>
<g filter="url(#filter5_d)">
<rect x="377" y="1156" width="245" height="172" rx="50" stroke="#002D72" stroke-width="20" shape-rendering="crispEdges"/>
</g>
<g filter="url(#filter6_d)">
<rect x="306" y="974" width="316" height="162" rx="50" stroke="#002D72" stroke-width="20" shape-rendering="crispEdges"/>
</g>
<g filter="url(#filter7_d)">
<rect x="1353" y="764" width="245" height="197" rx="50" stroke="#002D72" stroke-width="20" shape-rendering="crispEdges"/>
</g>
<defs>
<filter id="filter0_i" x="0" y="0" width="1941" height="1945" filterUnits="userSpaceOnUse" color-interpolation-filters="sRGB">
<feFlood flood-opacity="0" result="BackgroundImageFix"/>
<feBlend mode="normal" in="SourceGraphic" in2="BackgroundImageFix" result="shape"/>
<feColorMatrix in="SourceAlpha" type="matrix" values="0 0 0 0 0 0 0 0 0 0 0 0 0 0 0 0 0 0 127 0" result="hardAlpha"/>
<feOffset dy="4"/>
<feGaussianBlur stdDeviation="2"/>
<feComposite in2="hardAlpha" operator="arithmetic" k2="-1" k3="1"/>
<feColorMatrix type="matrix" values="0 0 0 0 0 0 0 0 0 0 0 0 0 0 0 0 0 0 0.25 0"/>
<feBlend mode="normal" in2="shape" result="effect1_innerShadow"/>
</filter>
<filter id="filter1_i" x="407.148" y="336" width="1127.29" height="1301" filterUnits="userSpaceOnUse" color-interpolation-filters="sRGB">
<feFlood flood-opacity="0" result="BackgroundImageFix"/>
<feBlend mode="normal" in="SourceGraphic" in2="BackgroundImageFix" result="shape"/>
<feColorMatrix in="SourceAlpha" type="matrix" values="0 0 0 0 0 0 0 0 0 0 0 0 0 0 0 0 0 0 127 0" result="hardAlpha"/>
<feOffset dy="4"/>
<feGaussianBlur stdDeviation="2"/>
<feComposite in2="hardAlpha" operator="arithmetic" k2="-1" k3="1"/>
<feColorMatrix type="matrix" values="0 0 0 0 0 0 0 0 0 0 0 0 0 0 0 0 0 0 0.25 0"/>
<feBlend mode="normal" in2="shape" result="effect1_innerShadow"/>
</filter>
<filter id="filter2_d" x="403.148" y="336" width="1135.29" height="1305" filterUnits="userSpaceOnUse" color-interpolation-filters="sRGB">
<feFlood flood-opacity="0" result="BackgroundImageFix"/>
<feColorMatrix in="SourceAlpha" type="matrix" values="0 0 0 0 0 0 0 0 0 0 0 0 0 0 0 0 0 0 127 0" result="hardAlpha"/>
<feOffset dy="4"/>
<feGaussianBlur stdDeviation="2"/>
<feComposite in2="hardAlpha" operator="out"/>
<feColorMatrix type="matrix" values="0 0 0 0 0 0 0 0 0 0 0 0 0 0 0 0 0 0 0.25 0"/>
<feBlend mode="normal" in2="BackgroundImageFix" result="effect1_dropShadow"/>
<feBlend mode="normal" in="SourceGraphic" in2="effect1_dropShadow" result="shape"/>
</filter>
<filter id="filter3_d" x="292" y="600" width="344" height="190" filterUnits="userSpaceOnUse" color-interpolation-filters="sRGB">
<feFlood flood-opacity="0" result="BackgroundImageFix"/>
<feColorMatrix in="SourceAlpha" type="matrix" values="0 0 0 0 0 0 0 0 0 0 0 0 0 0 0 0 0 0 127 0" result="hardAlpha"/>
<feOffset dy="4"/>
<feGaussianBlur stdDeviation="2"/>
<feComposite in2="hardAlpha" operator="out"/>
<feColorMatrix type="matrix" values="0 0 0 0 0 0 0 0 0 0 0 0 0 0 0 0 0 0 0.25 0"/>
<feBlend mode="normal" in2="BackgroundImageFix" result="effect1_dropShadow"/>
<feBlend mode="normal" in="SourceGraphic" in2="effect1_dropShadow" result="shape"/>
</filter>
<filter id="filter4_d" x="292" y="782" width="344" height="190" filterUnits="userSpaceOnUse" color-interpolation-filters="sRGB">
<feFlood flood-opacity="0" result="BackgroundImageFix"/>
<feColorMatrix in="SourceAlpha" type="matrix" values="0 0 0 0 0 0 0 0 0 0 0 0 0 0 0 0 0 0 127 0" result="hardAlpha"/>
<feOffset dy="4"/>
<feGaussianBlur stdDeviation="2"/>
<feComposite in2="hardAlpha" operator="out"/>
<feColorMatrix type="matrix" values="0 0 0 0 0 0 0 0 0 0 0 0 0 0 0 0 0 0 0.25 0"/>
<feBlend mode="normal" in2="BackgroundImageFix" result="effect1_dropShadow"/>
<feBlend mode="normal" in="SourceGraphic" in2="effect1_dropShadow" result="shape"/>
</filter>
<filter id="filter5_d" x="363" y="1146" width="273" height="200" filterUnits="userSpaceOnUse" color-interpolation-filters="sRGB">
<feFlood flood-opacity="0" result="BackgroundImageFix"/>
<feColorMatrix in="SourceAlpha" type="matrix" values="0 0 0 0 0 0 0 0 0 0 0 0 0 0 0 0 0 0 127 0" result="hardAlpha"/>
<feOffset dy="4"/>
<feGaussianBlur stdDeviation="2"/>
<feComposite in2="hardAlpha" operator="out"/>
<feColorMatrix type="matrix" values="0 0 0 0 0 0 0 0 0 0 0 0 0 0 0 0 0 0 0.25 0"/>
<feBlend mode="normal" in2="BackgroundImageFix" result="effect1_dropShadow"/>
<feBlend mode="normal" in="SourceGraphic" in2="effect1_dropShadow" result="shape"/>
</filter>
<filter id="filter6_d" x="292" y="964" width="344" height="190" filterUnits="userSpaceOnUse" color-interpolation-filters="sRGB">
<feFlood flood-opacity="0" result="BackgroundImageFix"/>
<feColorMatrix in="SourceAlpha" type="matrix" values="0 0 0 0 0 0 0 0 0 0 0 0 0 0 0 0 0 0 127 0" result="hardAlpha"/>
<feOffset dy="4"/>
<feGaussianBlur stdDeviation="2"/>
<feComposite in2="hardAlpha" operator="out"/>
<feColorMatrix type="matrix" values="0 0 0 0 0 0 0 0 0 0 0 0 0 0 0 0 0 0 0.25 0"/>
<feBlend mode="normal" in2="BackgroundImageFix" result="effect1_dropShadow"/>
<feBlend mode="normal" in="SourceGraphic" in2="effect1_dropShadow" result="shape"/>
</filter>
<filter id="filter7_d" x="1339" y="754" width="273" height="225" filterUnits="userSpaceOnUse" color-interpolation-filters="sRGB">
<feFlood flood-opacity="0" result="BackgroundImageFix"/>
<feColorMatrix in="SourceAlpha" type="matrix" values="0 0 0 0 0 0 0 0 0 0 0 0 0 0 0 0 0 0 127 0" result="hardAlpha"/>
<feOffset dy="4"/>
<feGaussianBlur stdDeviation="2"/>
<feComposite in2="hardAlpha" operator="out"/>
<feColorMatrix type="matrix" values="0 0 0 0 0 0 0 0 0 0 0 0 0 0 0 0 0 0 0.25 0"/>
<feBlend mode="normal" in2="BackgroundImageFix" result="effect1_dropShadow"/>
<feBlend mode="normal" in="SourceGraphic" in2="effect1_dropShadow" result="shape"/>
</filter>
</defs>
</svg>
