<svg width="2152" height="2152" viewBox="0 0 2152 2152" fill="none" xmlns="http://www.w3.org/2000/svg">
<g filter="url(#filter0_i)">
<path d="M403.874 717.493C482.802 691.583 596.842 661.204 706.897 652.521C825.514 643.135 982.89 659.369 1041.22 707.619V1440.16C957.828 1403.04 806.024 1398 708.545 1405.7C603.305 1414.11 485.656 1437.92 403.874 1462.43V717.493ZM1095.29 707.619C1153.62 659.369 1278.7 641.487 1397.32 650.873C1507.37 659.557 1657.83 692.924 1736.76 718.837V1463.77C1654.88 1439.26 1512.39 1413.97 1407.15 1405.7C1309.58 1397.93 1178.68 1402.97 1095.29 1440.16V707.619ZM1076 668.623C988.15 609.309 860.793 600.484 744.852 609.589C609.823 620.303 473.549 656.65 388.642 686.972C380.851 689.754 374.247 694.239 369.613 699.888C364.98 705.536 362.515 712.114 362.511 718.837V1489.17C362.515 1495.03 364.386 1500.79 367.962 1505.94C371.538 1511.08 376.699 1515.44 382.97 1518.61C389.245 1521.78 396.432 1523.66 403.874 1524.09C411.315 1524.51 418.773 1523.46 425.565 1521.04C504.227 1493.02 630.961 1459.34 753.77 1449.6C879.433 1439.66 984.762 1455.7 1041.22 1511.02C1045.4 1515.11 1050.69 1518.41 1056.71 1520.68C1062.73 1522.95 1069.32 1524.13 1076 1524.13C1082.68 1524.13 1089.27 1522.95 1095.29 1520.68C1101.31 1518.41 1106.6 1515.11 1110.78 1511.02C1167.24 1455.7 1272.57 1439.66 1398.14 1449.6C1521.04 1459.34 1647.86 1493.02 1726.43 1521.04C1733.23 1523.46 1740.68 1524.51 1748.13 1524.09C1755.57 1523.66 1762.75 1521.78 1769.03 1518.61C1775.3 1515.44 1780.46 1511.08 1784.04 1505.94C1787.61 1500.79 1789.48 1495.03 1789.49 1489.17V718.837C1789.48 712.114 1787.02 705.536 1782.39 699.888C1777.75 694.239 1771.15 689.754 1763.36 686.972C1678.45 656.65 1542.18 620.303 1407.15 609.589C1291.21 600.415 1163.85 609.309 1076 668.623Z" fill="#002D72"/>
</g>
<g filter="url(#filter1_i)">
<path d="M1189.28 804.116L1156.74 836.66L1228.34 936.924C1231.35 941.149 1235.33 944.59 1239.94 946.959C1244.56 949.332 1249.67 950.568 1254.86 950.561H1257.14C1261.42 950.558 1265.66 951.398 1269.61 953.036C1273.56 954.671 1277.15 957.07 1280.18 960.095L1367.23 1047.15L1282.07 1133.52C1267.5 1129.23 1252.13 1128.4 1237.19 1131.09C1222.24 1133.77 1208.13 1139.9 1195.96 1148.99C1183.8 1158.08 1173.92 1169.88 1167.12 1183.45C1160.31 1197.03 1156.75 1212 1156.74 1227.18C1156.76 1241.17 1159.79 1255 1165.62 1267.72C1171.45 1280.44 1179.94 1291.76 1190.52 1300.91C1201.11 1310.06 1213.54 1316.83 1226.97 1320.75C1240.4 1324.68 1254.51 1325.67 1268.36 1323.67C1282.21 1321.66 1295.46 1316.71 1307.23 1309.13C1318.99 1301.56 1328.99 1291.54 1336.54 1279.77C1344.1 1267.99 1349.04 1254.73 1351.02 1240.88C1353 1227.03 1351.98 1212.91 1348.03 1199.49L1434.4 1114.32L1465.9 1145.82L1455.98 1175.57C1454.07 1181.3 1453.8 1187.45 1455.19 1193.33C1456.58 1199.21 1459.58 1204.59 1463.85 1208.86L1573.07 1318.08C1579.18 1324.18 1587.45 1327.61 1596.08 1327.61C1604.71 1327.61 1612.98 1324.18 1619.09 1318.08L1670.7 1266.46C1676.8 1260.36 1680.23 1252.08 1680.23 1243.45C1680.23 1234.83 1676.8 1226.55 1670.7 1220.44L1561.49 1111.23C1557.21 1106.96 1551.84 1103.96 1545.96 1102.57C1540.08 1101.17 1533.93 1101.44 1528.19 1103.35L1498.45 1113.28L1467.21 1082.04L1554.43 996.023C1568.89 999.886 1584.06 1000.37 1598.74 997.45C1613.43 994.527 1627.25 988.269 1639.14 979.16C1651.02 970.051 1660.66 958.332 1667.3 944.909C1673.94 931.49 1677.41 916.722 1677.44 901.747C1677.44 892.991 1676.3 884.498 1674.12 876.46L1604.48 946.135L1547.26 934.291L1535.42 877.11L1605.1 807.435C1588.52 802.979 1571.06 802.969 1554.49 807.412C1537.91 811.851 1522.79 820.584 1510.66 832.728C1498.53 844.873 1489.82 859.999 1485.4 876.586C1480.98 893.169 1481.02 910.625 1485.5 927.196L1399.58 1014.35L1312.72 927.551C1306.62 921.451 1303.19 913.176 1303.19 904.545V902.235C1303.19 897.051 1301.95 891.943 1299.58 887.336C1297.21 882.729 1293.77 878.754 1289.55 875.742L1189.28 804.116ZM1503.2 1150.58C1504.71 1149.06 1506.51 1147.86 1508.49 1147.04C1510.46 1146.22 1512.58 1145.79 1514.72 1145.79C1516.86 1145.79 1518.98 1146.22 1520.96 1147.04C1522.93 1147.86 1524.73 1149.06 1526.24 1150.58L1623.87 1248.21C1625.39 1249.72 1626.59 1251.51 1627.4 1253.49C1628.22 1255.47 1628.65 1257.59 1628.65 1259.73C1628.65 1261.87 1628.22 1263.99 1627.4 1265.96C1626.59 1267.94 1625.39 1269.73 1623.87 1271.25C1622.36 1272.76 1620.56 1273.96 1618.59 1274.78C1616.61 1275.6 1614.49 1276.02 1612.35 1276.02C1610.21 1276.02 1608.09 1275.6 1606.12 1274.78C1604.14 1273.96 1602.34 1272.76 1600.83 1271.25L1503.2 1173.61C1501.68 1172.11 1500.48 1170.31 1499.66 1168.33C1498.84 1166.35 1498.42 1164.24 1498.42 1162.1C1498.42 1159.95 1498.84 1157.84 1499.66 1155.86C1500.48 1153.88 1501.68 1152.08 1503.2 1150.58ZM1254.37 1162.1L1269.7 1169.97L1286.92 1170.82L1296.26 1185.3L1310.74 1194.64L1311.58 1211.85L1319.46 1227.18L1311.58 1242.51L1310.74 1259.73L1296.26 1269.07L1286.92 1283.55L1269.7 1284.39L1254.37 1292.27L1239.04 1284.39L1221.83 1283.55L1212.49 1269.07L1198.01 1259.73L1197.16 1242.51L1189.28 1227.18L1197.16 1211.85L1198.01 1194.64L1212.49 1185.3L1221.83 1170.82L1239.04 1169.97L1254.37 1162.1Z" fill="#002D72"/>
</g>
<g filter="url(#filter2_i)">
<path d="M1076 2092.68C1644.78 2092.68 2105.86 1631.59 2105.86 1062.82C2105.86 494.041 1644.78 32.9556 1076 32.9556C507.223 32.9556 46.1377 494.041 46.1377 1062.82C46.1377 1631.59 507.223 2092.68 1076 2092.68Z" stroke="#002D72" stroke-width="40"/>
</g>
<defs>
<filter id="filter0_i" x="362.511" y="606.499" width="1426.98" height="921.68" filterUnits="userSpaceOnUse" color-interpolation-filters="sRGB">
<feFlood flood-opacity="0" result="BackgroundImageFix"/>
<feBlend mode="normal" in="SourceGraphic" in2="BackgroundImageFix" result="shape"/>
<feColorMatrix in="SourceAlpha" type="matrix" values="0 0 0 0 0 0 0 0 0 0 0 0 0 0 0 0 0 0 127 0" result="hardAlpha"/>
<feOffset dy="4"/>
<feGaussianBlur stdDeviation="2"/>
<feComposite in2="hardAlpha" operator="arithmetic" k2="-1" k3="1"/>
<feColorMatrix type="matrix" values="0 0 0 0 0 0 0 0 0 0 0 0 0 0 0 0 0 0 0.25 0"/>
<feBlend mode="normal" in2="shape" result="effect1_innerShadow"/>
</filter>
<filter id="filter1_i" x="1156.74" y="804.087" width="523.489" height="527.519" filterUnits="userSpaceOnUse" color-interpolation-filters="sRGB">
<feFlood flood-opacity="0" result="BackgroundImageFix"/>
<feBlend mode="normal" in="SourceGraphic" in2="BackgroundImageFix" result="shape"/>
<feColorMatrix in="SourceAlpha" type="matrix" values="0 0 0 0 0 0 0 0 0 0 0 0 0 0 0 0 0 0 127 0" result="hardAlpha"/>
<feOffset dy="4"/>
<feGaussianBlur stdDeviation="2"/>
<feComposite in2="hardAlpha" operator="arithmetic" k2="-1" k3="1"/>
<feColorMatrix type="matrix" values="0 0 0 0 0 0 0 0 0 0 0 0 0 0 0 0 0 0 0.25 0"/>
<feBlend mode="normal" in2="shape" result="effect1_innerShadow"/>
</filter>
<filter id="filter2_i" x="26.1377" y="12.9556" width="2099.72" height="2103.72" filterUnits="userSpaceOnUse" color-interpolation-filters="sRGB">
<feFlood flood-opacity="0" result="BackgroundImageFix"/>
<feBlend mode="normal" in="SourceGraphic" in2="BackgroundImageFix" result="shape"/>
<feColorMatrix in="SourceAlpha" type="matrix" values="0 0 0 0 0 0 0 0 0 0 0 0 0 0 0 0 0 0 127 0" result="hardAlpha"/>
<feOffset dy="4"/>
<feGaussianBlur stdDeviation="2"/>
<feComposite in2="hardAlpha" operator="arithmetic" k2="-1" k3="1"/>
<feColorMatrix type="matrix" values="0 0 0 0 0 0 0 0 0 0 0 0 0 0 0 0 0 0 0.25 0"/>
<feBlend mode="normal" in2="shape" result="effect1_innerShadow"/>
</filter>
</defs>
</svg>
