<svg width="1908" height="1908" viewBox="0 0 1908 1908" fill="none" xmlns="http://www.w3.org/2000/svg">
<g filter="url(#filter0_i)">
<path d="M1212.1 702.432L1463.67 385.521" stroke="#002D72" stroke-width="20"/>
</g>
<g filter="url(#filter1_i)">
<path d="M950.733 457.397L1214.28 713.322" stroke="#002D72" stroke-width="20"/>
</g>
<g filter="url(#filter2_i)">
<path d="M500.959 1130.42H355.027C336.983 1130.42 322.356 1145.05 322.356 1163.1V1452.78C322.356 1470.82 336.983 1485.45 355.027 1485.45H500.959C519.003 1485.45 533.63 1470.82 533.63 1452.78V1163.1C533.63 1145.05 519.003 1130.42 500.959 1130.42Z" fill="#002D72"/>
</g>
<g filter="url(#filter3_i)">
<path d="M753.616 934.397H607.685C589.641 934.397 575.014 949.025 575.014 967.069V1452.78C575.014 1470.82 589.641 1485.45 607.685 1485.45H753.616C771.66 1485.45 786.288 1470.82 786.288 1452.78V967.069C786.288 949.025 771.66 934.397 753.616 934.397Z" fill="#002D72"/>
</g>
<g filter="url(#filter4_i)">
<path d="M1025.88 764.507H879.945C861.901 764.507 847.274 779.134 847.274 797.178V1452.78C847.274 1470.82 861.901 1485.45 879.945 1485.45H1025.88C1043.92 1485.45 1058.55 1470.82 1058.55 1452.78V797.178C1058.55 779.134 1043.92 764.507 1025.88 764.507Z" fill="#002D72"/>
</g>
<g filter="url(#filter5_i)">
<path d="M1298.14 1049.84H1152.21C1134.16 1049.84 1119.53 1064.46 1119.53 1082.51V1457.14C1119.53 1475.18 1134.16 1489.81 1152.21 1489.81H1298.14C1316.18 1489.81 1330.81 1475.18 1330.81 1457.14V1082.51C1330.81 1064.46 1316.18 1049.84 1298.14 1049.84Z" fill="#002D72"/>
</g>
<g filter="url(#filter6_i)">
<path d="M1570.4 631.644H1424.47C1406.42 631.644 1391.79 646.271 1391.79 664.315V1457.14C1391.79 1475.18 1406.42 1489.81 1424.47 1489.81H1570.4C1588.44 1489.81 1603.07 1475.18 1603.07 1457.14V664.315C1603.07 646.271 1588.44 631.644 1570.4 631.644Z" fill="#002D72"/>
</g>
<g filter="url(#filter7_i)">
<path d="M1219.73 764.507C1255.81 764.507 1285.07 735.252 1285.07 699.164C1285.07 663.077 1255.81 633.822 1219.73 633.822C1183.64 633.822 1154.38 663.077 1154.38 699.164C1154.38 735.252 1183.64 764.507 1219.73 764.507Z" fill="#002D72"/>
</g>
<g filter="url(#filter8_i)">
<path d="M1461.49 446.507C1497.58 446.507 1526.84 417.252 1526.84 381.164C1526.84 345.077 1497.58 315.822 1461.49 315.822C1425.41 315.822 1396.15 345.077 1396.15 381.164C1396.15 417.252 1425.41 446.507 1461.49 446.507Z" fill="#002D72"/>
</g>
<g filter="url(#filter9_i)">
<path d="M424.726 884.301L705.699 664.315L950.733 457.397" stroke="#002D72" stroke-width="20"/>
</g>
<g filter="url(#filter10_i)">
<path d="M954 1868.79C1464.04 1868.79 1877.51 1455.33 1877.51 945.288C1877.51 435.249 1464.04 21.7808 954 21.7808C443.961 21.7808 30.4932 435.249 30.4932 945.288C30.4932 1455.33 443.961 1868.79 954 1868.79Z" stroke="#002D72" stroke-width="40"/>
</g>
<g filter="url(#filter11_i)">
<path d="M422.548 945.288C458.636 945.288 487.891 916.033 487.891 879.945C487.891 843.858 458.636 814.603 422.548 814.603C386.46 814.603 357.206 843.858 357.206 879.945C357.206 916.033 386.46 945.288 422.548 945.288Z" fill="#002D72"/>
</g>
<g filter="url(#filter12_i)">
<path d="M707.877 731.836C743.964 731.836 773.219 702.581 773.219 666.493C773.219 630.406 743.964 601.151 707.877 601.151C671.789 601.151 642.534 630.406 642.534 666.493C642.534 702.581 671.789 731.836 707.877 731.836Z" fill="#002D72"/>
</g>
<g filter="url(#filter13_i)">
<path d="M954 522.74C990.088 522.74 1019.34 493.485 1019.34 457.397C1019.34 421.31 990.088 392.055 954 392.055C917.913 392.055 888.658 421.31 888.658 457.397C888.658 493.485 917.913 522.74 954 522.74Z" fill="#002D72"/>
</g>
<defs>
<filter id="filter0_i" x="1204.27" y="379.303" width="267.232" height="333.346" filterUnits="userSpaceOnUse" color-interpolation-filters="sRGB">
<feFlood flood-opacity="0" result="BackgroundImageFix"/>
<feBlend mode="normal" in="SourceGraphic" in2="BackgroundImageFix" result="shape"/>
<feColorMatrix in="SourceAlpha" type="matrix" values="0 0 0 0 0 0 0 0 0 0 0 0 0 0 0 0 0 0 127 0" result="hardAlpha"/>
<feOffset dy="4"/>
<feGaussianBlur stdDeviation="2"/>
<feComposite in2="hardAlpha" operator="arithmetic" k2="-1" k3="1"/>
<feColorMatrix type="matrix" values="0 0 0 0 0 0 0 0 0 0 0 0 0 0 0 0 0 0 0.25 0"/>
<feBlend mode="normal" in2="shape" result="effect1_innerShadow"/>
</filter>
<filter id="filter1_i" x="943.767" y="450.223" width="277.481" height="274.273" filterUnits="userSpaceOnUse" color-interpolation-filters="sRGB">
<feFlood flood-opacity="0" result="BackgroundImageFix"/>
<feBlend mode="normal" in="SourceGraphic" in2="BackgroundImageFix" result="shape"/>
<feColorMatrix in="SourceAlpha" type="matrix" values="0 0 0 0 0 0 0 0 0 0 0 0 0 0 0 0 0 0 127 0" result="hardAlpha"/>
<feOffset dy="4"/>
<feGaussianBlur stdDeviation="2"/>
<feComposite in2="hardAlpha" operator="arithmetic" k2="-1" k3="1"/>
<feColorMatrix type="matrix" values="0 0 0 0 0 0 0 0 0 0 0 0 0 0 0 0 0 0 0.25 0"/>
<feBlend mode="normal" in2="shape" result="effect1_innerShadow"/>
</filter>
<filter id="filter2_i" x="322.356" y="1130.42" width="211.274" height="359.027" filterUnits="userSpaceOnUse" color-interpolation-filters="sRGB">
<feFlood flood-opacity="0" result="BackgroundImageFix"/>
<feBlend mode="normal" in="SourceGraphic" in2="BackgroundImageFix" result="shape"/>
<feColorMatrix in="SourceAlpha" type="matrix" values="0 0 0 0 0 0 0 0 0 0 0 0 0 0 0 0 0 0 127 0" result="hardAlpha"/>
<feOffset dy="4"/>
<feGaussianBlur stdDeviation="2"/>
<feComposite in2="hardAlpha" operator="arithmetic" k2="-1" k3="1"/>
<feColorMatrix type="matrix" values="0 0 0 0 0 0 0 0 0 0 0 0 0 0 0 0 0 0 0.25 0"/>
<feBlend mode="normal" in2="shape" result="effect1_innerShadow"/>
</filter>
<filter id="filter3_i" x="575.014" y="934.397" width="211.274" height="555.055" filterUnits="userSpaceOnUse" color-interpolation-filters="sRGB">
<feFlood flood-opacity="0" result="BackgroundImageFix"/>
<feBlend mode="normal" in="SourceGraphic" in2="BackgroundImageFix" result="shape"/>
<feColorMatrix in="SourceAlpha" type="matrix" values="0 0 0 0 0 0 0 0 0 0 0 0 0 0 0 0 0 0 127 0" result="hardAlpha"/>
<feOffset dy="4"/>
<feGaussianBlur stdDeviation="2"/>
<feComposite in2="hardAlpha" operator="arithmetic" k2="-1" k3="1"/>
<feColorMatrix type="matrix" values="0 0 0 0 0 0 0 0 0 0 0 0 0 0 0 0 0 0 0.25 0"/>
<feBlend mode="normal" in2="shape" result="effect1_innerShadow"/>
</filter>
<filter id="filter4_i" x="847.274" y="764.507" width="211.274" height="724.945" filterUnits="userSpaceOnUse" color-interpolation-filters="sRGB">
<feFlood flood-opacity="0" result="BackgroundImageFix"/>
<feBlend mode="normal" in="SourceGraphic" in2="BackgroundImageFix" result="shape"/>
<feColorMatrix in="SourceAlpha" type="matrix" values="0 0 0 0 0 0 0 0 0 0 0 0 0 0 0 0 0 0 127 0" result="hardAlpha"/>
<feOffset dy="4"/>
<feGaussianBlur stdDeviation="2"/>
<feComposite in2="hardAlpha" operator="arithmetic" k2="-1" k3="1"/>
<feColorMatrix type="matrix" values="0 0 0 0 0 0 0 0 0 0 0 0 0 0 0 0 0 0 0.25 0"/>
<feBlend mode="normal" in2="shape" result="effect1_innerShadow"/>
</filter>
<filter id="filter5_i" x="1119.53" y="1049.84" width="211.274" height="443.973" filterUnits="userSpaceOnUse" color-interpolation-filters="sRGB">
<feFlood flood-opacity="0" result="BackgroundImageFix"/>
<feBlend mode="normal" in="SourceGraphic" in2="BackgroundImageFix" result="shape"/>
<feColorMatrix in="SourceAlpha" type="matrix" values="0 0 0 0 0 0 0 0 0 0 0 0 0 0 0 0 0 0 127 0" result="hardAlpha"/>
<feOffset dy="4"/>
<feGaussianBlur stdDeviation="2"/>
<feComposite in2="hardAlpha" operator="arithmetic" k2="-1" k3="1"/>
<feColorMatrix type="matrix" values="0 0 0 0 0 0 0 0 0 0 0 0 0 0 0 0 0 0 0.25 0"/>
<feBlend mode="normal" in2="shape" result="effect1_innerShadow"/>
</filter>
<filter id="filter6_i" x="1391.79" y="631.644" width="211.274" height="862.164" filterUnits="userSpaceOnUse" color-interpolation-filters="sRGB">
<feFlood flood-opacity="0" result="BackgroundImageFix"/>
<feBlend mode="normal" in="SourceGraphic" in2="BackgroundImageFix" result="shape"/>
<feColorMatrix in="SourceAlpha" type="matrix" values="0 0 0 0 0 0 0 0 0 0 0 0 0 0 0 0 0 0 127 0" result="hardAlpha"/>
<feOffset dy="4"/>
<feGaussianBlur stdDeviation="2"/>
<feComposite in2="hardAlpha" operator="arithmetic" k2="-1" k3="1"/>
<feColorMatrix type="matrix" values="0 0 0 0 0 0 0 0 0 0 0 0 0 0 0 0 0 0 0.25 0"/>
<feBlend mode="normal" in2="shape" result="effect1_innerShadow"/>
</filter>
<filter id="filter7_i" x="1154.38" y="633.822" width="130.685" height="134.685" filterUnits="userSpaceOnUse" color-interpolation-filters="sRGB">
<feFlood flood-opacity="0" result="BackgroundImageFix"/>
<feBlend mode="normal" in="SourceGraphic" in2="BackgroundImageFix" result="shape"/>
<feColorMatrix in="SourceAlpha" type="matrix" values="0 0 0 0 0 0 0 0 0 0 0 0 0 0 0 0 0 0 127 0" result="hardAlpha"/>
<feOffset dy="4"/>
<feGaussianBlur stdDeviation="2"/>
<feComposite in2="hardAlpha" operator="arithmetic" k2="-1" k3="1"/>
<feColorMatrix type="matrix" values="0 0 0 0 0 0 0 0 0 0 0 0 0 0 0 0 0 0 0.25 0"/>
<feBlend mode="normal" in2="shape" result="effect1_innerShadow"/>
</filter>
<filter id="filter8_i" x="1396.15" y="315.822" width="130.685" height="134.685" filterUnits="userSpaceOnUse" color-interpolation-filters="sRGB">
<feFlood flood-opacity="0" result="BackgroundImageFix"/>
<feBlend mode="normal" in="SourceGraphic" in2="BackgroundImageFix" result="shape"/>
<feColorMatrix in="SourceAlpha" type="matrix" values="0 0 0 0 0 0 0 0 0 0 0 0 0 0 0 0 0 0 127 0" result="hardAlpha"/>
<feOffset dy="4"/>
<feGaussianBlur stdDeviation="2"/>
<feComposite in2="hardAlpha" operator="arithmetic" k2="-1" k3="1"/>
<feColorMatrix type="matrix" values="0 0 0 0 0 0 0 0 0 0 0 0 0 0 0 0 0 0 0.25 0"/>
<feBlend mode="normal" in2="shape" result="effect1_innerShadow"/>
</filter>
<filter id="filter9_i" x="418.562" y="449.757" width="538.623" height="446.418" filterUnits="userSpaceOnUse" color-interpolation-filters="sRGB">
<feFlood flood-opacity="0" result="BackgroundImageFix"/>
<feBlend mode="normal" in="SourceGraphic" in2="BackgroundImageFix" result="shape"/>
<feColorMatrix in="SourceAlpha" type="matrix" values="0 0 0 0 0 0 0 0 0 0 0 0 0 0 0 0 0 0 127 0" result="hardAlpha"/>
<feOffset dy="4"/>
<feGaussianBlur stdDeviation="2"/>
<feComposite in2="hardAlpha" operator="arithmetic" k2="-1" k3="1"/>
<feColorMatrix type="matrix" values="0 0 0 0 0 0 0 0 0 0 0 0 0 0 0 0 0 0 0.25 0"/>
<feBlend mode="normal" in2="shape" result="effect1_innerShadow"/>
</filter>
<filter id="filter10_i" x="10.4932" y="1.78076" width="1887.01" height="1891.01" filterUnits="userSpaceOnUse" color-interpolation-filters="sRGB">
<feFlood flood-opacity="0" result="BackgroundImageFix"/>
<feBlend mode="normal" in="SourceGraphic" in2="BackgroundImageFix" result="shape"/>
<feColorMatrix in="SourceAlpha" type="matrix" values="0 0 0 0 0 0 0 0 0 0 0 0 0 0 0 0 0 0 127 0" result="hardAlpha"/>
<feOffset dy="4"/>
<feGaussianBlur stdDeviation="2"/>
<feComposite in2="hardAlpha" operator="arithmetic" k2="-1" k3="1"/>
<feColorMatrix type="matrix" values="0 0 0 0 0 0 0 0 0 0 0 0 0 0 0 0 0 0 0.25 0"/>
<feBlend mode="normal" in2="shape" result="effect1_innerShadow"/>
</filter>
<filter id="filter11_i" x="357.206" y="814.603" width="130.685" height="134.685" filterUnits="userSpaceOnUse" color-interpolation-filters="sRGB">
<feFlood flood-opacity="0" result="BackgroundImageFix"/>
<feBlend mode="normal" in="SourceGraphic" in2="BackgroundImageFix" result="shape"/>
<feColorMatrix in="SourceAlpha" type="matrix" values="0 0 0 0 0 0 0 0 0 0 0 0 0 0 0 0 0 0 127 0" result="hardAlpha"/>
<feOffset dy="4"/>
<feGaussianBlur stdDeviation="2"/>
<feComposite in2="hardAlpha" operator="arithmetic" k2="-1" k3="1"/>
<feColorMatrix type="matrix" values="0 0 0 0 0 0 0 0 0 0 0 0 0 0 0 0 0 0 0.25 0"/>
<feBlend mode="normal" in2="shape" result="effect1_innerShadow"/>
</filter>
<filter id="filter12_i" x="642.534" y="601.151" width="130.685" height="134.685" filterUnits="userSpaceOnUse" color-interpolation-filters="sRGB">
<feFlood flood-opacity="0" result="BackgroundImageFix"/>
<feBlend mode="normal" in="SourceGraphic" in2="BackgroundImageFix" result="shape"/>
<feColorMatrix in="SourceAlpha" type="matrix" values="0 0 0 0 0 0 0 0 0 0 0 0 0 0 0 0 0 0 127 0" result="hardAlpha"/>
<feOffset dy="4"/>
<feGaussianBlur stdDeviation="2"/>
<feComposite in2="hardAlpha" operator="arithmetic" k2="-1" k3="1"/>
<feColorMatrix type="matrix" values="0 0 0 0 0 0 0 0 0 0 0 0 0 0 0 0 0 0 0.25 0"/>
<feBlend mode="normal" in2="shape" result="effect1_innerShadow"/>
</filter>
<filter id="filter13_i" x="888.658" y="392.055" width="130.685" height="134.685" filterUnits="userSpaceOnUse" color-interpolation-filters="sRGB">
<feFlood flood-opacity="0" result="BackgroundImageFix"/>
<feBlend mode="normal" in="SourceGraphic" in2="BackgroundImageFix" result="shape"/>
<feColorMatrix in="SourceAlpha" type="matrix" values="0 0 0 0 0 0 0 0 0 0 0 0 0 0 0 0 0 0 127 0" result="hardAlpha"/>
<feOffset dy="4"/>
<feGaussianBlur stdDeviation="2"/>
<feComposite in2="hardAlpha" operator="arithmetic" k2="-1" k3="1"/>
<feColorMatrix type="matrix" values="0 0 0 0 0 0 0 0 0 0 0 0 0 0 0 0 0 0 0.25 0"/>
<feBlend mode="normal" in2="shape" result="effect1_innerShadow"/>
</filter>
</defs>
</svg>
