<svg width="1986" height="1986" viewBox="0 0 1986 1986" fill="none" xmlns="http://www.w3.org/2000/svg">
<g filter="url(#filter0_i)">
<path d="M734.761 577.302C720.908 577.302 707.193 580.03 694.396 585.329C681.6 590.632 669.972 598.399 660.177 608.194C650.385 617.989 642.615 629.614 637.315 642.414C632.012 655.21 629.285 668.925 629.285 682.775C629.285 696.625 632.012 710.343 637.315 723.14C642.615 735.936 650.385 747.561 660.177 757.356C669.972 767.151 681.6 774.921 694.396 780.221C707.193 785.52 720.908 788.248 734.761 788.248C762.731 788.248 789.561 777.136 809.342 757.356C829.122 737.575 840.234 710.749 840.234 682.775C840.234 654.801 829.122 627.975 809.342 608.194C789.561 588.414 762.731 577.302 734.761 577.302ZM661.778 682.775C661.778 663.421 669.469 644.857 683.156 631.17C696.84 617.483 715.404 609.796 734.761 609.796C754.115 609.796 772.679 617.483 786.366 631.17C800.049 644.857 807.74 663.421 807.74 682.775C807.74 702.132 800.049 720.693 786.366 734.38C772.679 748.067 754.115 755.754 734.761 755.754C715.404 755.754 696.84 748.067 683.156 734.38C669.469 720.693 661.778 702.132 661.778 682.775Z" fill="#002D72"/>
</g>
<g filter="url(#filter1_i)">
<path d="M793.127 466.471C776.002 408.308 693.533 408.308 676.411 466.471L673.354 476.838C672.158 480.896 670.072 484.639 667.24 487.786C664.412 490.934 660.911 493.408 657.001 495.03C653.092 496.649 648.87 497.373 644.642 497.148C640.417 496.926 636.292 495.758 632.577 493.734L623.087 488.535C569.798 459.549 511.538 517.843 540.555 571.101L545.72 580.588C547.744 584.307 548.912 588.428 549.137 592.656C549.362 596.881 548.634 601.106 547.016 605.016C545.397 608.926 542.923 612.423 539.772 615.254C536.625 618.083 532.885 620.173 528.823 621.368L518.46 624.422C460.297 641.547 460.297 724.016 518.46 741.138L528.823 744.192C532.885 745.388 536.625 747.478 539.772 750.309C542.923 753.138 545.397 756.635 547.016 760.548C548.634 764.457 549.362 768.679 549.137 772.907C548.912 777.132 547.744 781.257 545.72 784.972L540.521 794.462C511.538 847.752 569.798 906.042 623.087 876.994L632.577 871.826C636.292 869.802 640.417 868.638 644.642 868.412C648.87 868.187 653.092 868.911 657.001 870.533C660.911 872.152 664.412 874.627 667.24 877.774C670.072 880.924 672.158 884.664 673.354 888.723L676.411 899.09C693.533 957.252 776.002 957.252 793.127 899.09L796.181 888.723C797.377 884.664 799.467 880.924 802.295 877.774C805.123 874.627 808.624 872.152 812.533 870.533C816.443 868.911 820.668 868.187 824.893 868.412C829.121 868.638 833.242 869.802 836.961 871.826L846.448 877.025C899.737 906.042 958.031 847.717 928.983 794.462L923.815 784.972C921.791 781.257 920.623 777.132 920.398 772.907C920.176 768.679 920.9 764.457 922.519 760.548C924.141 756.635 926.616 753.138 929.763 750.309C932.91 747.478 936.65 745.388 940.712 744.192L951.075 741.138C1009.24 724.016 1009.24 641.547 951.075 624.422L940.712 621.368C936.65 620.173 932.91 618.083 929.763 615.254C926.616 612.423 924.141 608.926 922.519 605.016C920.9 601.106 920.176 596.881 920.398 592.656C920.623 588.428 921.791 584.307 923.815 580.588L929.014 571.101C958.031 517.812 899.706 459.549 846.448 488.566L836.961 493.734C833.242 495.758 829.121 496.926 824.893 497.148C820.668 497.373 816.443 496.649 812.533 495.03C808.624 493.408 805.123 490.934 802.295 487.786C799.467 484.639 797.377 480.896 796.181 476.838L793.127 466.471ZM707.57 475.666C715.562 448.534 753.972 448.534 761.965 475.666L765.018 486.033C767.587 494.743 772.072 502.77 778.144 509.522C784.216 516.273 791.724 521.583 800.115 525.056C808.506 528.532 817.566 530.082 826.636 529.6C835.703 529.118 844.548 526.609 852.524 522.263L861.979 517.064C886.805 503.581 913.968 530.713 900.451 555.57L895.287 565.057C890.944 573.032 888.445 581.877 887.967 590.944C887.488 600.011 889.045 609.068 892.521 617.455C895.997 625.843 901.307 633.347 908.062 639.416C914.814 645.485 922.838 649.966 931.548 652.531L941.88 655.584C969.011 663.577 969.011 701.983 941.88 709.979L931.516 713.033C922.803 715.601 914.779 720.086 908.028 726.158C901.272 732.231 895.966 739.738 892.493 748.129C889.017 756.517 887.464 765.58 887.949 774.647C888.431 783.718 890.94 792.563 895.287 800.538L900.486 809.993C913.968 834.817 886.837 861.983 861.979 848.466L852.524 843.298C844.548 838.951 835.7 836.446 826.629 835.967C817.559 835.486 808.495 837.038 800.104 840.518C791.713 843.994 784.206 849.304 778.137 856.063C772.065 862.818 767.583 870.849 765.018 879.562L761.965 889.894C753.972 917.026 715.562 917.026 707.57 889.894L704.516 879.528C701.948 870.821 697.463 862.801 691.394 856.053C685.322 849.301 677.818 843.998 669.434 840.522C661.046 837.049 651.99 835.496 642.923 835.978C633.859 836.456 625.017 838.958 617.042 843.298L607.556 848.497C582.729 861.983 555.566 834.851 569.084 809.993L574.251 800.538C578.601 792.563 581.114 783.714 581.599 774.64C582.088 765.57 580.535 756.503 577.062 748.108C573.589 739.71 568.276 732.203 561.521 726.127C554.766 720.051 546.735 715.567 538.018 712.998L527.655 709.945C500.523 701.952 500.523 663.546 527.655 655.55L538.018 652.496C546.721 649.928 554.738 645.443 561.486 639.374C568.231 633.309 573.534 625.808 577.007 617.424C580.48 609.043 582.036 599.99 581.558 590.93C581.083 581.867 578.584 573.029 574.251 565.057L569.052 555.57C555.566 530.744 582.698 503.581 607.556 517.098L617.042 522.263C625.017 526.602 633.859 529.104 642.923 529.586C651.99 530.064 661.046 528.512 669.434 525.039C677.818 521.566 685.322 516.259 691.394 509.511C697.463 502.759 701.948 494.739 704.516 486.033L707.57 475.666Z" fill="#002D72"/>
</g>
<g filter="url(#filter2_i)">
<path d="M734.761 1253.17C720.908 1253.17 707.193 1255.89 694.396 1261.19C681.6 1266.5 669.972 1274.26 660.177 1284.06C650.385 1293.85 642.615 1305.48 637.315 1318.28C632.012 1331.07 629.285 1344.79 629.285 1358.64C629.285 1372.49 632.012 1386.21 637.315 1399C642.615 1411.8 650.385 1423.42 660.177 1433.22C669.972 1443.01 681.6 1450.79 694.396 1456.08C707.193 1461.38 720.908 1464.11 734.761 1464.11C762.731 1464.11 789.561 1453 809.342 1433.22C829.122 1413.44 840.234 1386.61 840.234 1358.64C840.234 1330.67 829.122 1303.84 809.342 1284.06C789.561 1264.28 762.731 1253.17 734.761 1253.17ZM661.778 1358.64C661.778 1339.28 669.469 1320.72 683.156 1307.03C696.84 1293.35 715.404 1285.66 734.761 1285.66C754.115 1285.66 772.679 1293.35 786.366 1307.03C800.049 1320.72 807.74 1339.28 807.74 1358.64C807.74 1378 800.049 1396.56 786.366 1410.24C772.679 1423.93 754.115 1431.62 734.761 1431.62C715.404 1431.62 696.84 1423.93 683.156 1410.24C669.469 1396.56 661.778 1378 661.778 1358.64Z" fill="#002D72"/>
</g>
<g filter="url(#filter3_i)">
<path d="M791.973 1145.5C767.711 1102.18 693.533 1084.17 676.411 1142.33L673.354 1152.7C672.158 1156.76 670.072 1160.5 667.24 1163.65C664.412 1166.79 660.911 1169.27 657.001 1170.89C653.092 1172.51 648.87 1173.23 644.642 1173.01C640.417 1172.79 636.292 1171.62 632.577 1169.59L623.087 1164.4C569.798 1135.41 511.538 1193.7 540.555 1246.96L545.72 1256.45C547.744 1260.17 548.912 1264.29 549.137 1268.52C549.362 1272.74 548.634 1276.97 547.016 1280.88C545.397 1284.79 542.923 1288.28 539.772 1291.11C536.625 1293.94 532.885 1296.03 528.823 1297.23L518.46 1300.28C460.297 1317.41 460.297 1399.88 518.46 1417L528.823 1420.05C532.885 1421.25 536.625 1423.34 539.772 1426.17C542.923 1429 545.397 1432.5 547.016 1436.41C548.634 1440.32 549.362 1444.54 549.137 1448.77C548.912 1452.99 547.744 1457.12 545.72 1460.83L540.521 1470.32C511.538 1523.61 569.798 1581.9 623.087 1552.85L632.577 1547.69C636.292 1545.66 640.417 1544.5 644.642 1544.27C648.87 1544.05 653.092 1544.77 657.001 1546.39C660.911 1548.01 664.412 1550.49 667.24 1553.63C670.072 1556.78 672.158 1560.52 673.354 1564.58L676.411 1574.95C693.533 1633.11 776.002 1633.11 793.127 1574.95L796.181 1564.58C797.377 1560.52 799.467 1556.78 802.295 1553.63C805.123 1550.49 808.624 1548.01 812.533 1546.39C816.443 1544.77 820.668 1544.05 824.893 1544.27C829.121 1544.5 833.242 1545.66 836.961 1547.69L846.448 1552.89C899.737 1581.9 958.031 1523.58 928.983 1470.32L923.815 1460.83C921.791 1457.12 920.623 1452.99 920.398 1448.77C920.176 1444.54 920.9 1440.32 922.519 1436.41C924.141 1432.5 926.616 1429 929.763 1426.17C932.91 1423.34 936.65 1421.25 940.712 1420.05L951.075 1417C1009.24 1399.88 1009.24 1317.41 951.075 1300.28V1287.61C947.013 1286.41 945.027 1280.04 941.88 1277.21C938.733 1274.38 935.7 1270.71 934.078 1266.8C932.459 1262.89 920.176 1272.74 920.398 1268.52C920.623 1264.29 921.791 1260.17 923.815 1256.45L909.816 1261.61C916.998 1248.43 904.998 1270.54 902.884 1258.15C900.271 1242.84 862.911 1286.55 850.895 1277.21C839.093 1268.03 812.769 1258.15 821.434 1235.62C813.684 1236.4 837.925 1181.1 830.099 1185.36L836.961 1169.59C833.242 1171.62 829.121 1172.79 824.893 1173.01C820.668 1173.23 832.061 1150.37 819.701 1159.37C815.791 1157.74 817.33 1157.31 814.502 1154.17C811.674 1151.02 797.377 1156.76 796.181 1152.7L791.973 1145.5ZM707.57 1151.53C715.562 1124.4 756.253 1121.84 764.245 1148.97H779.842C782.411 1157.68 801.498 1157.68 807.57 1164.43C813.642 1171.18 806.111 1192.29 814.502 1195.76C822.893 1199.24 817.566 1205.94 826.636 1205.46C835.703 1204.98 796.129 1241.7 804.104 1237.35V1268.52C828.931 1255.03 850.479 1272.37 836.961 1297.23L863.025 1287.61C858.683 1295.58 888.445 1257.74 887.967 1266.8C887.488 1275.87 904.551 1265.36 908.028 1273.74C911.504 1282.13 927.323 1285 934.078 1291.07C940.83 1297.14 942.365 1314.5 951.075 1317.07V1327.47C978.207 1335.46 969.011 1377.84 941.88 1385.84L931.516 1388.89C922.803 1391.46 914.779 1395.95 908.028 1402.02C901.272 1408.09 895.966 1415.6 892.493 1423.99C889.017 1432.38 887.464 1441.44 887.949 1450.51C888.431 1459.58 890.94 1468.42 895.287 1476.4L900.486 1485.85C913.968 1510.68 886.837 1537.84 861.979 1524.33L852.524 1519.16C844.548 1514.81 835.7 1512.31 826.629 1511.83C817.559 1511.35 808.495 1512.9 800.104 1516.38C791.713 1519.85 784.206 1525.16 778.137 1531.92C772.065 1538.68 767.583 1546.71 765.018 1555.42L761.965 1565.75C753.972 1592.89 715.562 1592.89 707.57 1565.75L704.516 1555.39C701.948 1546.68 697.463 1538.66 691.394 1531.91C685.322 1525.16 677.818 1519.86 669.434 1516.38C661.046 1512.91 651.99 1511.36 642.923 1511.84C633.859 1512.32 625.017 1514.82 617.042 1519.16L607.556 1524.36C582.729 1537.84 555.566 1510.71 569.084 1485.85L574.251 1476.4C578.601 1468.42 581.114 1459.57 581.599 1450.5C582.088 1441.43 580.535 1432.36 577.062 1423.97C573.589 1415.57 568.276 1408.06 561.521 1401.99C554.766 1395.91 546.735 1391.43 538.018 1388.86L527.655 1385.81C500.523 1377.81 500.523 1339.41 527.655 1331.41L538.018 1328.36C546.721 1325.79 554.738 1321.3 561.486 1315.23C568.231 1309.17 573.534 1301.67 577.007 1293.28C580.48 1284.9 582.036 1275.85 581.558 1266.79C581.083 1257.73 578.584 1248.89 574.251 1240.92L569.052 1231.43C555.566 1206.6 582.698 1179.44 607.556 1192.96L617.042 1198.12C625.017 1202.46 633.859 1204.96 642.923 1205.45C651.99 1205.92 661.046 1204.37 669.434 1200.9C677.818 1197.43 685.322 1192.12 691.394 1185.37C697.463 1178.62 701.948 1170.6 704.516 1161.89L707.57 1151.53Z" fill="#002D72"/>
</g>
<g filter="url(#filter4_i)">
<path d="M734.761 1253.17C720.908 1253.17 707.193 1255.89 694.396 1261.19C681.6 1266.5 669.972 1274.26 660.177 1284.06C650.385 1293.85 642.615 1305.48 637.315 1318.28C632.012 1331.07 629.285 1344.79 629.285 1358.64C629.285 1372.49 632.012 1386.21 637.315 1399C642.615 1411.8 650.385 1423.42 660.177 1433.22C669.972 1443.01 681.6 1450.79 694.396 1456.08C707.193 1461.38 720.908 1464.11 734.761 1464.11C762.731 1464.11 789.561 1453 809.342 1433.22C829.122 1413.44 840.234 1386.61 840.234 1358.64C840.234 1330.67 829.122 1303.84 809.342 1284.06C789.561 1264.28 762.731 1253.17 734.761 1253.17ZM661.778 1358.64C661.778 1339.28 669.469 1320.72 683.156 1307.03C696.84 1293.35 715.404 1285.66 734.761 1285.66C754.115 1285.66 772.679 1293.35 786.366 1307.03C800.049 1320.72 807.74 1339.28 807.74 1358.64C807.74 1378 800.049 1396.56 786.366 1410.24C772.679 1423.93 754.115 1431.62 734.761 1431.62C715.404 1431.62 696.84 1423.93 683.156 1410.24C669.469 1396.56 661.778 1378 661.778 1358.64Z" fill="#002D72"/>
</g>
<g filter="url(#filter5_i)">
<path d="M791.973 1145.5C767.711 1102.18 693.533 1084.17 676.411 1142.33L673.354 1152.7C672.158 1156.76 670.072 1160.5 667.24 1163.65C664.412 1166.79 660.911 1169.27 657.001 1170.89C653.092 1172.51 648.87 1173.23 644.642 1173.01C640.417 1172.79 636.292 1171.62 632.577 1169.59L623.087 1164.4C569.798 1135.41 511.538 1193.7 540.555 1246.96L545.72 1256.45C547.744 1260.17 548.912 1264.29 549.137 1268.52C549.362 1272.74 548.634 1276.97 547.016 1280.88C545.397 1284.79 542.923 1288.28 539.772 1291.11C536.625 1293.94 532.885 1296.03 528.823 1297.23L518.46 1300.28C460.297 1317.41 460.297 1399.88 518.46 1417L528.823 1420.05C532.885 1421.25 536.625 1423.34 539.772 1426.17C542.923 1429 545.397 1432.5 547.016 1436.41C548.634 1440.32 549.362 1444.54 549.137 1448.77C548.912 1452.99 547.744 1457.12 545.72 1460.83L540.521 1470.32C511.538 1523.61 569.798 1581.9 623.087 1552.85L632.577 1547.69C636.292 1545.66 640.417 1544.5 644.642 1544.27C648.87 1544.05 653.092 1544.77 657.001 1546.39C660.911 1548.01 664.412 1550.49 667.24 1553.63C670.072 1556.78 672.158 1560.52 673.354 1564.58L676.411 1574.95C693.533 1633.11 776.002 1633.11 793.127 1574.95L796.181 1564.58C797.377 1560.52 799.467 1556.78 802.295 1553.63C805.123 1550.49 808.624 1548.01 812.533 1546.39C816.443 1544.77 820.668 1544.05 824.893 1544.27C829.121 1544.5 833.242 1545.66 836.961 1547.69L846.448 1552.89C899.737 1581.9 958.031 1523.58 928.983 1470.32L923.815 1460.83C921.791 1457.12 920.623 1452.99 920.398 1448.77C920.176 1444.54 920.9 1440.32 922.519 1436.41C924.141 1432.5 926.616 1429 929.763 1426.17C932.91 1423.34 936.65 1421.25 940.712 1420.05L951.075 1417C1009.24 1399.88 1009.24 1317.41 951.075 1300.28V1287.61C947.013 1286.41 945.027 1280.04 941.88 1277.21C938.733 1274.38 935.7 1270.71 934.078 1266.8C932.459 1262.89 920.176 1272.74 920.398 1268.52C920.623 1264.29 921.791 1260.17 923.815 1256.45L909.816 1261.61C916.998 1248.43 904.998 1270.54 902.884 1258.15C900.271 1242.84 862.911 1286.55 850.895 1277.21C839.093 1268.03 812.769 1258.15 821.434 1235.62C813.684 1236.4 837.925 1181.1 830.099 1185.36L836.961 1169.59C833.242 1171.62 829.121 1172.79 824.893 1173.01C820.668 1173.23 832.061 1150.37 819.701 1159.37C815.791 1157.74 817.33 1157.31 814.502 1154.17C811.674 1151.02 797.377 1156.76 796.181 1152.7L791.973 1145.5ZM707.57 1151.53C715.562 1124.4 756.253 1121.84 764.245 1148.97H779.842C782.411 1157.68 801.498 1157.68 807.57 1164.43C813.642 1171.18 806.111 1192.29 814.502 1195.76C822.893 1199.24 817.566 1205.94 826.636 1205.46C835.703 1204.98 796.129 1241.7 804.104 1237.35V1268.52C828.931 1255.03 850.479 1272.37 836.961 1297.23L863.025 1287.61C858.683 1295.58 888.445 1257.74 887.967 1266.8C887.488 1275.87 904.551 1265.36 908.028 1273.74C911.504 1282.13 927.323 1285 934.078 1291.07C940.83 1297.14 942.365 1314.5 951.075 1317.07V1327.47C978.207 1335.46 969.011 1377.84 941.88 1385.84L931.516 1388.89C922.803 1391.46 914.779 1395.95 908.028 1402.02C901.272 1408.09 895.966 1415.6 892.493 1423.99C889.017 1432.38 887.464 1441.44 887.949 1450.51C888.431 1459.58 890.94 1468.42 895.287 1476.4L900.486 1485.85C913.968 1510.68 886.837 1537.84 861.979 1524.33L852.524 1519.16C844.548 1514.81 835.7 1512.31 826.629 1511.83C817.559 1511.35 808.495 1512.9 800.104 1516.38C791.713 1519.85 784.206 1525.16 778.137 1531.92C772.065 1538.68 767.583 1546.71 765.018 1555.42L761.965 1565.75C753.972 1592.89 715.562 1592.89 707.57 1565.75L704.516 1555.39C701.948 1546.68 697.463 1538.66 691.394 1531.91C685.322 1525.16 677.818 1519.86 669.434 1516.38C661.046 1512.91 651.99 1511.36 642.923 1511.84C633.859 1512.32 625.017 1514.82 617.042 1519.16L607.556 1524.36C582.729 1537.84 555.566 1510.71 569.084 1485.85L574.251 1476.4C578.601 1468.42 581.114 1459.57 581.599 1450.5C582.088 1441.43 580.535 1432.36 577.062 1423.97C573.589 1415.57 568.276 1408.06 561.521 1401.99C554.766 1395.91 546.735 1391.43 538.018 1388.86L527.655 1385.81C500.523 1377.81 500.523 1339.41 527.655 1331.41L538.018 1328.36C546.721 1325.79 554.738 1321.3 561.486 1315.23C568.231 1309.17 573.534 1301.67 577.007 1293.28C580.48 1284.9 582.036 1275.85 581.558 1266.79C581.083 1257.73 578.584 1248.89 574.251 1240.92L569.052 1231.43C555.566 1206.6 582.698 1179.44 607.556 1192.96L617.042 1198.12C625.017 1202.46 633.859 1204.96 642.923 1205.45C651.99 1205.92 661.046 1204.37 669.434 1200.9C677.818 1197.43 685.322 1192.12 691.394 1185.37C697.463 1178.62 701.948 1170.6 704.516 1161.89L707.57 1151.53Z" fill="#002D72"/>
</g>
<g filter="url(#filter6_i)">
<path d="M1275.99 1176.81C1285 1187.34 1295.99 1195.98 1308.34 1202.25C1320.69 1208.53 1334.15 1212.31 1347.96 1213.38C1361.76 1214.45 1375.65 1212.79 1388.82 1208.5C1401.99 1204.21 1414.18 1197.36 1424.7 1188.35C1435.23 1179.34 1443.87 1168.35 1450.15 1156C1456.42 1143.66 1460.2 1130.19 1461.27 1116.39C1462.34 1102.57 1460.69 1088.69 1456.39 1075.52C1452.1 1062.35 1445.25 1050.16 1436.24 1039.63C1418.05 1018.38 1392.16 1005.23 1364.27 1003.07C1336.38 1000.9 1308.78 1009.91 1287.53 1028.1C1266.27 1046.29 1253.12 1072.18 1250.96 1100.06C1248.79 1127.95 1257.8 1155.56 1275.99 1176.81ZM1403.58 1163.67C1388.87 1176.25 1369.77 1182.48 1350.47 1180.98C1331.17 1179.49 1313.26 1170.39 1300.67 1155.68C1288.09 1140.98 1281.86 1121.88 1283.35 1102.58C1284.85 1083.28 1293.95 1065.37 1308.66 1052.78C1323.36 1040.19 1342.46 1033.97 1361.76 1035.46C1381.06 1036.96 1398.97 1046.06 1411.56 1060.77C1424.14 1075.47 1430.37 1094.57 1428.88 1113.87C1427.38 1133.17 1418.28 1151.08 1403.58 1163.67Z" fill="#002D72"/>
</g>
<g filter="url(#filter7_i)">
<path d="M1156.99 1203.36C1139.85 1249.96 1174.41 1318.03 1229.73 1293.21L1239.59 1288.79C1243.45 1287.06 1247.66 1286.21 1251.89 1286.32C1256.12 1286.42 1260.28 1287.47 1264.05 1289.39C1267.82 1291.3 1271.12 1294.04 1273.7 1297.4C1276.27 1300.75 1278.07 1304.64 1278.95 1308.78L1281.17 1319.37C1293.8 1378.71 1375.97 1385.06 1397.57 1328.38L1401.41 1318.28C1402.92 1314.33 1405.29 1310.76 1408.36 1307.84C1411.42 1304.92 1415.1 1302.73 1419.13 1301.42C1423.15 1300.1 1427.41 1299.71 1431.62 1300.26C1435.81 1300.81 1439.83 1302.3 1443.38 1304.6L1452.44 1310.49C1503.27 1343.54 1565.93 1289.91 1541.11 1234.59L1536.69 1224.73C1534.95 1220.87 1534.11 1216.67 1534.21 1212.43C1534.32 1208.2 1535.36 1204.05 1537.28 1200.28C1539.2 1196.5 1541.93 1193.2 1545.29 1190.63C1548.65 1188.05 1552.54 1186.26 1556.68 1185.38L1567.27 1183.15C1626.6 1170.52 1632.99 1088.35 1576.27 1066.76L1566.18 1062.91C1562.22 1061.4 1558.66 1059.03 1555.74 1055.97C1552.82 1052.9 1550.62 1049.22 1549.31 1045.2C1548 1041.17 1547.6 1036.91 1548.15 1032.71C1548.71 1028.51 1550.19 1024.5 1552.5 1020.95L1558.38 1011.88C1591.43 961.054 1537.81 898.403 1482.49 923.216L1472.62 927.635C1468.76 929.368 1464.56 930.21 1460.33 930.113C1456.1 930.009 1451.94 928.959 1448.17 927.043C1444.4 925.126 1441.1 922.388 1438.52 919.033C1435.94 915.674 1434.15 911.785 1433.27 907.644L1431.05 897.059C1418.44 837.704 1336.22 831.347 1314.66 888.047L1310.81 898.143C1309.3 902.098 1306.93 905.668 1303.86 908.586C1300.8 911.505 1297.12 913.699 1293.09 915.012C1289.07 916.322 1284.8 916.718 1280.61 916.166C1276.41 915.615 1272.39 914.135 1268.84 911.827L1259.78 905.938C1208.95 872.887 1146.3 926.516 1171.11 981.84L1161.48 990.082C1163.21 993.946 1159.67 999.599 1159.56 1003.83C1159.46 1008.06 1158.65 1012.75 1156.73 1016.52C1154.82 1020.29 1170.28 1023.22 1166.93 1025.8C1163.57 1028.38 1159.68 1030.17 1155.54 1031.05L1168.57 1038.33C1153.88 1041.45 1178.48 1036.18 1170.44 1045.85C1160.51 1057.79 1218.01 1057.75 1218.73 1072.95C1219.43 1087.88 1239.21 1118.37 1216.45 1126.44C1222.09 1131.82 1154.15 1145.31 1162.48 1148.48L1168.57 1153.56C1172.52 1155.07 1153.56 1157.39 1156.48 1160.46C1159.4 1163.53 1149.68 1169.69 1164.56 1173.23C1165.87 1177.25 1149.48 1176.42 1148.92 1180.61C1148.37 1184.81 1162.03 1191.94 1159.72 1195.48L1156.99 1203.36ZM1216.45 1263.56C1190.65 1275.13 1162.24 1245.88 1177.65 1222.17L1167.51 1210.32C1172.46 1202.71 1160.05 1188.21 1161.22 1179.21C1162.41 1170.2 1183.34 1162.2 1180.52 1153.56C1177.71 1144.93 1186.26 1144.61 1180 1138.04C1173.74 1131.46 1227.37 1137.65 1218.88 1134.42L1242.55 1114.15C1216.17 1104.06 1215.33 1076.41 1243 1070.52L1218.74 1056.97C1227.62 1055.09 1179.52 1057.09 1186.72 1051.55C1193.92 1046.02 1174.83 1039.9 1178.94 1031.8C1183.05 1023.71 1174.95 1009.82 1175.17 1000.74C1175.39 991.666 1187.58 979.209 1183.86 970.925L1191.76 964.163C1180.19 938.356 1218.37 917.775 1242.09 933.188L1251.15 939.076C1258.76 944.022 1267.39 947.204 1276.39 948.383C1285.4 949.568 1294.55 948.715 1303.19 945.898C1311.82 943.083 1319.71 938.369 1326.28 932.103C1332.86 925.84 1337.95 918.18 1341.18 909.692L1344.99 899.596C1355.08 873.209 1393.36 876.155 1399.25 903.831L1401.48 914.375C1403.36 923.258 1407.21 931.611 1412.75 938.813C1418.28 946.015 1425.35 951.89 1433.45 956.004C1441.55 960.118 1450.47 962.368 1459.55 962.583C1468.63 962.805 1477.64 960.985 1485.93 957.269L1495.76 952.868C1521.57 941.298 1546.55 970.475 1531.14 994.192L1525.25 1003.25C1520.3 1010.86 1517.13 1019.49 1515.95 1028.49C1514.77 1037.49 1515.62 1046.64 1518.43 1055.27C1521.25 1063.9 1525.96 1071.79 1532.22 1078.36C1538.47 1084.94 1546.12 1090.03 1554.61 1093.26L1564.73 1097.09C1591.12 1107.18 1588.17 1145.46 1560.49 1151.36L1549.95 1153.58C1541.06 1155.46 1532.71 1159.3 1525.5 1164.84C1518.29 1170.36 1512.41 1177.44 1508.29 1185.54C1504.17 1193.64 1501.92 1202.56 1501.7 1211.64C1501.48 1220.72 1503.29 1229.74 1507.01 1238.03L1511.43 1247.89C1523 1273.7 1493.83 1298.67 1470.11 1283.26L1461.05 1277.38C1453.44 1272.43 1444.82 1269.26 1435.82 1268.08C1426.83 1266.9 1417.68 1267.75 1409.05 1270.56C1400.43 1273.38 1392.54 1278.08 1385.96 1284.34C1379.39 1290.59 1374.3 1298.23 1371.06 1306.71L1367.23 1316.83C1357.14 1343.22 1318.86 1340.27 1312.97 1312.6L1310.72 1302.03C1308.83 1293.15 1304.99 1284.81 1299.46 1277.61C1293.92 1270.41 1286.86 1264.54 1278.76 1260.43C1270.67 1256.32 1261.76 1254.06 1252.68 1253.84C1243.61 1253.62 1234.6 1255.43 1226.32 1259.14L1216.45 1263.56Z" fill="#002D72"/>
</g>
<g filter="url(#filter8_i)">
<path d="M1230.39 549.574C1216.54 549.574 1202.83 552.302 1190.03 557.602C1177.23 562.904 1165.61 570.672 1155.81 580.467C1146.02 590.261 1138.25 601.886 1132.95 614.686C1127.65 627.482 1124.92 641.197 1124.92 655.047C1124.92 668.897 1127.65 682.616 1132.95 695.412C1138.25 708.208 1146.02 719.833 1155.81 729.628C1165.61 739.423 1177.23 747.193 1190.03 752.493C1202.83 757.792 1216.54 760.52 1230.39 760.52C1258.37 760.52 1285.2 749.408 1304.98 729.628C1324.76 709.848 1335.87 683.021 1335.87 655.047C1335.87 627.073 1324.76 600.247 1304.98 580.467C1285.2 560.686 1258.37 549.574 1230.39 549.574ZM1157.41 655.047C1157.41 635.693 1165.1 617.13 1178.79 603.442C1192.47 589.755 1211.04 582.068 1230.39 582.068C1249.75 582.068 1268.31 589.755 1282 603.442C1295.68 617.13 1303.37 635.693 1303.37 655.047C1303.37 674.405 1295.68 692.965 1282 706.652C1268.31 720.339 1249.75 728.027 1230.39 728.027C1211.04 728.027 1192.47 720.339 1178.79 706.652C1165.1 692.965 1157.41 674.405 1157.41 655.047Z" fill="#002D72"/>
</g>
<g filter="url(#filter9_i)">
<path d="M1288.76 438.743C1271.64 380.581 1189.17 380.581 1172.04 438.743L1168.99 449.11C1167.79 453.168 1165.71 456.912 1162.87 460.059C1160.05 463.206 1156.54 465.681 1152.64 467.303C1148.73 468.921 1144.5 469.646 1140.28 469.42C1136.05 469.198 1131.93 468.03 1128.21 466.006L1118.72 460.807C1065.43 431.821 1007.17 490.116 1036.19 543.374L1041.35 552.86C1043.38 556.579 1044.55 560.7 1044.77 564.929C1045 569.154 1044.27 573.379 1042.65 577.288C1041.03 581.198 1038.56 584.695 1035.41 587.527C1032.26 590.355 1028.52 592.445 1024.46 593.641L1014.09 596.694C955.931 613.82 955.931 696.289 1014.09 713.411L1024.46 716.464C1028.52 717.66 1032.26 719.75 1035.41 722.582C1038.56 725.41 1041.03 728.907 1042.65 732.82C1044.27 736.73 1045 740.951 1044.77 745.18C1044.55 749.405 1043.38 753.529 1041.35 757.245L1036.15 766.735C1007.17 820.024 1065.43 878.314 1118.72 849.266L1128.21 844.098C1131.93 842.074 1136.05 840.91 1140.28 840.684C1144.5 840.459 1148.73 841.184 1152.64 842.806C1156.54 844.424 1160.05 846.899 1162.87 850.046C1165.71 853.197 1167.79 856.936 1168.99 860.995L1172.04 871.362C1189.17 929.524 1271.64 929.524 1288.76 871.362L1291.81 860.995C1293.01 856.936 1295.1 853.197 1297.93 850.046C1300.76 846.899 1304.26 844.424 1308.17 842.806C1312.08 841.184 1316.3 840.459 1320.53 840.684C1324.76 840.91 1328.88 842.074 1332.6 844.098L1342.08 849.297C1395.37 878.314 1453.66 819.989 1424.62 766.735L1419.45 757.245C1417.42 753.529 1416.26 749.405 1416.03 745.18C1415.81 740.951 1416.53 736.73 1418.15 732.82C1419.77 728.907 1422.25 725.41 1425.4 722.582C1428.54 719.75 1432.28 717.66 1436.35 716.464L1446.71 713.411C1504.87 696.289 1504.87 613.82 1446.71 596.694L1436.35 593.641C1432.28 592.445 1428.54 590.355 1425.4 587.527C1422.25 584.695 1419.77 581.198 1418.15 577.288C1416.53 573.379 1415.81 569.154 1416.03 564.929C1416.26 560.7 1417.42 556.579 1419.45 552.86L1424.65 543.374C1453.66 490.084 1395.34 431.821 1342.08 460.839L1332.6 466.006C1328.88 468.03 1324.76 469.198 1320.53 469.42C1316.3 469.646 1312.08 468.921 1308.17 467.303C1304.26 465.681 1300.76 463.206 1297.93 460.059C1295.1 456.912 1293.01 453.168 1291.81 449.11L1288.76 438.743ZM1203.2 447.938C1211.2 420.807 1249.61 420.807 1257.6 447.938L1260.65 458.305C1263.22 467.015 1267.71 475.042 1273.78 481.794C1279.85 488.546 1287.36 493.855 1295.75 497.328C1304.14 500.805 1313.2 502.354 1322.27 501.872C1331.34 501.39 1340.18 498.881 1348.16 494.535L1357.61 489.336C1382.44 475.853 1409.6 502.985 1396.08 527.843L1390.92 537.329C1386.58 545.304 1384.08 554.149 1383.6 563.216C1383.12 572.283 1384.68 581.34 1388.15 589.728C1391.63 598.115 1396.94 605.619 1403.7 611.688C1410.45 617.757 1418.47 622.238 1427.18 624.803L1437.51 627.857C1464.65 635.849 1464.65 674.256 1437.51 682.252L1427.15 685.305C1418.44 687.873 1410.41 692.358 1403.66 698.431C1396.91 704.503 1391.6 712.01 1388.13 720.401C1384.65 728.789 1383.1 737.853 1383.58 746.92C1384.06 755.99 1386.57 764.835 1390.92 772.81L1396.12 782.266C1409.6 807.089 1382.47 834.255 1357.61 820.738L1348.16 815.57C1340.18 811.224 1331.33 808.718 1322.26 808.239C1313.19 807.758 1304.13 809.31 1295.74 812.79C1287.35 816.267 1279.84 821.577 1273.77 828.335C1267.7 835.09 1263.22 843.121 1260.65 851.834L1257.6 862.167C1249.61 889.298 1211.2 889.298 1203.2 862.167L1200.15 851.8C1197.58 843.093 1193.1 835.073 1187.03 828.325C1180.96 821.573 1173.45 816.27 1165.07 812.794C1156.68 809.321 1147.62 807.768 1138.56 808.25C1129.49 808.728 1120.65 811.231 1112.68 815.57L1103.19 820.769C1078.36 834.255 1051.2 807.123 1064.72 782.266L1069.89 772.81C1074.24 764.835 1076.75 755.987 1077.23 746.913C1077.72 737.842 1076.17 728.775 1072.7 720.381C1069.22 711.983 1063.91 704.475 1057.15 698.4C1050.4 692.324 1042.37 687.839 1033.65 685.27L1023.29 682.217C996.157 674.224 996.157 635.818 1023.29 627.822L1033.65 624.768C1042.36 622.2 1050.37 617.715 1057.12 611.646C1063.86 605.581 1069.17 598.081 1072.64 589.696C1076.11 581.316 1077.67 572.263 1077.19 563.202C1076.72 554.139 1074.22 545.301 1069.89 537.329L1064.69 527.843C1051.2 503.016 1078.33 475.853 1103.19 489.37L1112.68 494.535C1120.65 498.874 1129.49 501.377 1138.56 501.858C1147.62 502.337 1156.68 500.784 1165.07 497.311C1173.45 493.838 1180.96 488.532 1187.03 481.783C1193.1 475.032 1197.58 467.011 1200.15 458.305L1203.2 447.938Z" fill="#002D72"/>
</g>
<g filter="url(#filter10_i)">
<path d="M994.733 993.236C980.879 993.236 967.164 995.963 954.368 1001.26C941.572 1006.57 929.943 1014.33 920.149 1024.13C910.357 1033.92 902.587 1045.55 897.287 1058.35C891.984 1071.14 889.256 1084.86 889.256 1098.71C889.256 1112.56 891.984 1126.28 897.287 1139.07C902.587 1151.87 910.357 1163.49 920.149 1173.29C929.943 1183.08 941.572 1190.85 954.368 1196.15C967.164 1201.45 980.879 1204.18 994.733 1204.18C1022.7 1204.18 1049.53 1193.07 1069.31 1173.29C1089.09 1153.51 1100.21 1126.68 1100.21 1098.71C1100.21 1070.73 1089.09 1043.91 1069.31 1024.13C1049.53 1004.35 1022.7 993.236 994.733 993.236ZM921.75 1098.71C921.75 1079.35 929.441 1060.79 943.128 1047.1C956.812 1033.42 975.375 1025.73 994.733 1025.73C1014.09 1025.73 1032.65 1033.42 1046.34 1047.1C1060.02 1060.79 1067.71 1079.35 1067.71 1098.71C1067.71 1118.07 1060.02 1136.63 1046.34 1150.31C1032.65 1164 1014.09 1171.69 994.733 1171.69C975.375 1171.69 956.812 1164 943.128 1150.31C929.441 1136.63 921.75 1118.07 921.75 1098.71Z" fill="#002D72"/>
</g>
<g filter="url(#filter11_i)">
<path d="M1053.1 882.401C1035.98 824.239 953.508 824.239 936.387 882.401L933.33 892.768C932.134 896.826 930.047 900.57 927.216 903.717C924.387 906.864 920.887 909.338 916.977 910.96C913.068 912.579 908.846 913.304 904.617 913.078C900.392 912.856 896.268 911.688 892.553 909.664L883.063 904.465C829.773 875.479 771.514 933.774 800.531 987.032L805.695 996.518C807.719 1000.24 808.887 1004.36 809.113 1008.59C809.338 1012.81 808.61 1017.04 806.992 1020.95C805.373 1024.86 802.898 1028.35 799.748 1031.18C796.601 1034.01 792.861 1036.1 788.799 1037.3L778.435 1040.35C720.27 1057.48 720.27 1139.95 778.435 1157.07L788.799 1160.12C792.861 1161.32 796.601 1163.41 799.748 1166.24C802.898 1169.07 805.373 1172.56 806.992 1176.48C808.61 1180.39 809.338 1184.61 809.113 1188.84C808.887 1193.06 807.719 1197.19 805.695 1200.9L800.496 1210.39C771.514 1263.68 829.773 1321.97 883.063 1292.92L892.553 1287.76C896.268 1285.73 900.392 1284.57 904.617 1284.34C908.846 1284.12 913.068 1284.84 916.977 1286.46C920.887 1288.08 924.387 1290.56 927.216 1293.7C930.047 1296.85 932.134 1300.59 933.33 1304.65L936.387 1315.02C953.508 1373.18 1035.98 1373.18 1053.1 1315.02L1056.16 1304.65C1057.35 1300.59 1059.44 1296.85 1062.27 1293.7C1065.1 1290.56 1068.6 1288.08 1072.51 1286.46C1076.42 1284.84 1080.64 1284.12 1084.87 1284.34C1089.1 1284.57 1093.22 1285.73 1096.94 1287.76L1106.42 1292.96C1159.71 1321.97 1218.01 1263.65 1188.96 1210.39L1183.79 1200.9C1181.77 1197.19 1180.6 1193.06 1180.37 1188.84C1180.15 1184.61 1180.88 1180.39 1182.49 1176.48C1184.12 1172.56 1186.59 1169.07 1189.74 1166.24C1192.89 1163.41 1196.63 1161.32 1200.69 1160.12L1211.05 1157.07C1269.22 1139.95 1269.22 1057.48 1211.05 1040.35L1200.69 1037.3C1196.63 1036.1 1192.89 1034.01 1189.74 1031.18C1186.59 1028.35 1184.12 1024.86 1182.49 1020.95C1180.88 1017.04 1180.15 1012.81 1180.37 1008.59C1180.6 1004.36 1181.77 1000.24 1183.79 996.518L1188.99 987.032C1218.01 933.742 1159.68 875.479 1106.42 904.496L1096.94 909.664C1093.22 911.688 1089.1 912.856 1084.87 913.078C1080.64 913.304 1076.42 912.579 1072.51 910.96C1068.6 909.338 1065.1 906.864 1062.27 903.717C1059.44 900.57 1057.35 896.826 1056.16 892.768L1053.1 882.401ZM967.546 891.596C975.538 864.465 1013.95 864.465 1021.94 891.596L1024.99 901.963C1027.56 910.673 1032.05 918.7 1038.12 925.452C1044.19 932.203 1051.7 937.513 1060.09 940.986C1068.48 944.463 1077.54 946.012 1086.61 945.53C1095.68 945.048 1104.52 942.539 1112.5 938.193L1121.95 932.994C1146.78 919.511 1173.94 946.643 1160.43 971.501L1155.26 980.987C1150.92 988.962 1148.42 997.807 1147.94 1006.87C1147.46 1015.94 1149.02 1025 1152.5 1033.39C1155.97 1041.77 1161.28 1049.28 1168.04 1055.35C1174.79 1061.41 1182.81 1065.9 1191.52 1068.46L1201.86 1071.51C1228.99 1079.51 1228.99 1117.91 1201.86 1125.91L1191.49 1128.96C1182.78 1131.53 1174.76 1136.02 1168 1142.09C1161.25 1148.16 1155.94 1155.67 1152.47 1164.06C1148.99 1172.45 1147.44 1181.51 1147.93 1190.58C1148.41 1199.65 1150.92 1208.49 1155.26 1216.47L1160.46 1225.92C1173.94 1250.75 1146.81 1277.91 1121.95 1264.4L1112.5 1259.23C1104.52 1254.88 1095.68 1252.38 1086.61 1251.9C1077.53 1251.42 1068.47 1252.97 1060.08 1256.45C1051.69 1259.92 1044.18 1265.23 1038.11 1271.99C1032.04 1278.75 1027.56 1286.78 1024.99 1295.49L1021.94 1305.82C1013.95 1332.96 975.538 1332.96 967.546 1305.82L964.492 1295.46C961.924 1286.75 957.439 1278.73 951.37 1271.98C945.298 1265.23 937.794 1259.93 929.41 1256.45C921.022 1252.98 911.965 1251.43 902.898 1251.91C893.835 1252.39 884.993 1254.89 877.018 1259.23L867.532 1264.43C842.705 1277.91 815.542 1250.78 829.059 1225.92L834.227 1216.47C838.577 1208.49 841.09 1199.64 841.575 1190.57C842.064 1181.5 840.511 1172.43 837.038 1164.04C833.565 1155.64 828.252 1148.13 821.497 1142.06C814.741 1135.98 806.711 1131.5 797.994 1128.93L787.631 1125.87C760.499 1117.88 760.499 1079.48 787.631 1071.48L797.994 1068.43C806.697 1065.86 814.714 1061.37 821.462 1055.3C828.207 1049.24 833.51 1041.74 836.983 1033.35C840.455 1024.97 842.012 1015.92 841.533 1006.86C841.059 997.797 838.56 988.959 834.227 980.987L829.028 971.501C815.542 946.674 842.674 919.511 867.532 933.028L877.018 938.193C884.993 942.532 893.835 945.034 902.898 945.516C911.965 945.994 921.022 944.442 929.41 940.969C937.794 937.496 945.298 932.19 951.37 925.441C957.439 918.69 961.924 910.669 964.492 901.963L967.546 891.596Z" fill="#002D72"/>
</g>
<g filter="url(#filter12_i)">
<path d="M993 1951.34C1522.28 1951.34 1951.34 1522.28 1951.34 993C1951.34 463.723 1522.28 34.6597 993 34.6597C463.723 34.6597 34.6597 463.723 34.6597 993C34.6597 1522.28 463.723 1951.34 993 1951.34Z" stroke="#002D72" stroke-width="40"/>
</g>
<defs>
<filter id="filter0_i" x="629.285" y="577.302" width="210.949" height="214.946" filterUnits="userSpaceOnUse" color-interpolation-filters="sRGB">
<feFlood flood-opacity="0" result="BackgroundImageFix"/>
<feBlend mode="normal" in="SourceGraphic" in2="BackgroundImageFix" result="shape"/>
<feColorMatrix in="SourceAlpha" type="matrix" values="0 0 0 0 0 0 0 0 0 0 0 0 0 0 0 0 0 0 127 0" result="hardAlpha"/>
<feOffset dy="4"/>
<feGaussianBlur stdDeviation="2"/>
<feComposite in2="hardAlpha" operator="arithmetic" k2="-1" k3="1"/>
<feColorMatrix type="matrix" values="0 0 0 0 0 0 0 0 0 0 0 0 0 0 0 0 0 0 0.25 0"/>
<feBlend mode="normal" in2="shape" result="effect1_innerShadow"/>
</filter>
<filter id="filter1_i" x="474.838" y="422.849" width="519.861" height="523.862" filterUnits="userSpaceOnUse" color-interpolation-filters="sRGB">
<feFlood flood-opacity="0" result="BackgroundImageFix"/>
<feBlend mode="normal" in="SourceGraphic" in2="BackgroundImageFix" result="shape"/>
<feColorMatrix in="SourceAlpha" type="matrix" values="0 0 0 0 0 0 0 0 0 0 0 0 0 0 0 0 0 0 127 0" result="hardAlpha"/>
<feOffset dy="4"/>
<feGaussianBlur stdDeviation="2"/>
<feComposite in2="hardAlpha" operator="arithmetic" k2="-1" k3="1"/>
<feColorMatrix type="matrix" values="0 0 0 0 0 0 0 0 0 0 0 0 0 0 0 0 0 0 0.25 0"/>
<feBlend mode="normal" in2="shape" result="effect1_innerShadow"/>
</filter>
<filter id="filter2_i" x="629.285" y="1253.17" width="210.949" height="214.946" filterUnits="userSpaceOnUse" color-interpolation-filters="sRGB">
<feFlood flood-opacity="0" result="BackgroundImageFix"/>
<feBlend mode="normal" in="SourceGraphic" in2="BackgroundImageFix" result="shape"/>
<feColorMatrix in="SourceAlpha" type="matrix" values="0 0 0 0 0 0 0 0 0 0 0 0 0 0 0 0 0 0 127 0" result="hardAlpha"/>
<feOffset dy="4"/>
<feGaussianBlur stdDeviation="2"/>
<feComposite in2="hardAlpha" operator="arithmetic" k2="-1" k3="1"/>
<feColorMatrix type="matrix" values="0 0 0 0 0 0 0 0 0 0 0 0 0 0 0 0 0 0 0.25 0"/>
<feBlend mode="normal" in2="shape" result="effect1_innerShadow"/>
</filter>
<filter id="filter3_i" x="474.838" y="1105.45" width="519.861" height="517.12" filterUnits="userSpaceOnUse" color-interpolation-filters="sRGB">
<feFlood flood-opacity="0" result="BackgroundImageFix"/>
<feBlend mode="normal" in="SourceGraphic" in2="BackgroundImageFix" result="shape"/>
<feColorMatrix in="SourceAlpha" type="matrix" values="0 0 0 0 0 0 0 0 0 0 0 0 0 0 0 0 0 0 127 0" result="hardAlpha"/>
<feOffset dy="4"/>
<feGaussianBlur stdDeviation="2"/>
<feComposite in2="hardAlpha" operator="arithmetic" k2="-1" k3="1"/>
<feColorMatrix type="matrix" values="0 0 0 0 0 0 0 0 0 0 0 0 0 0 0 0 0 0 0.25 0"/>
<feBlend mode="normal" in2="shape" result="effect1_innerShadow"/>
</filter>
<filter id="filter4_i" x="629.285" y="1253.17" width="210.949" height="214.946" filterUnits="userSpaceOnUse" color-interpolation-filters="sRGB">
<feFlood flood-opacity="0" result="BackgroundImageFix"/>
<feBlend mode="normal" in="SourceGraphic" in2="BackgroundImageFix" result="shape"/>
<feColorMatrix in="SourceAlpha" type="matrix" values="0 0 0 0 0 0 0 0 0 0 0 0 0 0 0 0 0 0 127 0" result="hardAlpha"/>
<feOffset dy="4"/>
<feGaussianBlur stdDeviation="2"/>
<feComposite in2="hardAlpha" operator="arithmetic" k2="-1" k3="1"/>
<feColorMatrix type="matrix" values="0 0 0 0 0 0 0 0 0 0 0 0 0 0 0 0 0 0 0.25 0"/>
<feBlend mode="normal" in2="shape" result="effect1_innerShadow"/>
</filter>
<filter id="filter5_i" x="474.838" y="1105.45" width="519.861" height="517.12" filterUnits="userSpaceOnUse" color-interpolation-filters="sRGB">
<feFlood flood-opacity="0" result="BackgroundImageFix"/>
<feBlend mode="normal" in="SourceGraphic" in2="BackgroundImageFix" result="shape"/>
<feColorMatrix in="SourceAlpha" type="matrix" values="0 0 0 0 0 0 0 0 0 0 0 0 0 0 0 0 0 0 127 0" result="hardAlpha"/>
<feOffset dy="4"/>
<feGaussianBlur stdDeviation="2"/>
<feComposite in2="hardAlpha" operator="arithmetic" k2="-1" k3="1"/>
<feColorMatrix type="matrix" values="0 0 0 0 0 0 0 0 0 0 0 0 0 0 0 0 0 0 0.25 0"/>
<feBlend mode="normal" in2="shape" result="effect1_innerShadow"/>
</filter>
<filter id="filter6_i" x="1250.64" y="1002.75" width="210.948" height="214.949" filterUnits="userSpaceOnUse" color-interpolation-filters="sRGB">
<feFlood flood-opacity="0" result="BackgroundImageFix"/>
<feBlend mode="normal" in="SourceGraphic" in2="BackgroundImageFix" result="shape"/>
<feColorMatrix in="SourceAlpha" type="matrix" values="0 0 0 0 0 0 0 0 0 0 0 0 0 0 0 0 0 0 127 0" result="hardAlpha"/>
<feOffset dy="4"/>
<feGaussianBlur stdDeviation="2"/>
<feComposite in2="hardAlpha" operator="arithmetic" k2="-1" k3="1"/>
<feColorMatrix type="matrix" values="0 0 0 0 0 0 0 0 0 0 0 0 0 0 0 0 0 0 0.25 0"/>
<feBlend mode="normal" in2="shape" result="effect1_innerShadow"/>
</filter>
<filter id="filter7_i" x="1148.91" y="848.842" width="466.575" height="522.728" filterUnits="userSpaceOnUse" color-interpolation-filters="sRGB">
<feFlood flood-opacity="0" result="BackgroundImageFix"/>
<feBlend mode="normal" in="SourceGraphic" in2="BackgroundImageFix" result="shape"/>
<feColorMatrix in="SourceAlpha" type="matrix" values="0 0 0 0 0 0 0 0 0 0 0 0 0 0 0 0 0 0 127 0" result="hardAlpha"/>
<feOffset dy="4"/>
<feGaussianBlur stdDeviation="2"/>
<feComposite in2="hardAlpha" operator="arithmetic" k2="-1" k3="1"/>
<feColorMatrix type="matrix" values="0 0 0 0 0 0 0 0 0 0 0 0 0 0 0 0 0 0 0.25 0"/>
<feBlend mode="normal" in2="shape" result="effect1_innerShadow"/>
</filter>
<filter id="filter8_i" x="1124.92" y="549.574" width="210.949" height="214.946" filterUnits="userSpaceOnUse" color-interpolation-filters="sRGB">
<feFlood flood-opacity="0" result="BackgroundImageFix"/>
<feBlend mode="normal" in="SourceGraphic" in2="BackgroundImageFix" result="shape"/>
<feColorMatrix in="SourceAlpha" type="matrix" values="0 0 0 0 0 0 0 0 0 0 0 0 0 0 0 0 0 0 127 0" result="hardAlpha"/>
<feOffset dy="4"/>
<feGaussianBlur stdDeviation="2"/>
<feComposite in2="hardAlpha" operator="arithmetic" k2="-1" k3="1"/>
<feColorMatrix type="matrix" values="0 0 0 0 0 0 0 0 0 0 0 0 0 0 0 0 0 0 0.25 0"/>
<feBlend mode="normal" in2="shape" result="effect1_innerShadow"/>
</filter>
<filter id="filter9_i" x="970.472" y="395.121" width="519.861" height="523.862" filterUnits="userSpaceOnUse" color-interpolation-filters="sRGB">
<feFlood flood-opacity="0" result="BackgroundImageFix"/>
<feBlend mode="normal" in="SourceGraphic" in2="BackgroundImageFix" result="shape"/>
<feColorMatrix in="SourceAlpha" type="matrix" values="0 0 0 0 0 0 0 0 0 0 0 0 0 0 0 0 0 0 127 0" result="hardAlpha"/>
<feOffset dy="4"/>
<feGaussianBlur stdDeviation="2"/>
<feComposite in2="hardAlpha" operator="arithmetic" k2="-1" k3="1"/>
<feColorMatrix type="matrix" values="0 0 0 0 0 0 0 0 0 0 0 0 0 0 0 0 0 0 0.25 0"/>
<feBlend mode="normal" in2="shape" result="effect1_innerShadow"/>
</filter>
<filter id="filter10_i" x="889.256" y="993.236" width="210.949" height="214.946" filterUnits="userSpaceOnUse" color-interpolation-filters="sRGB">
<feFlood flood-opacity="0" result="BackgroundImageFix"/>
<feBlend mode="normal" in="SourceGraphic" in2="BackgroundImageFix" result="shape"/>
<feColorMatrix in="SourceAlpha" type="matrix" values="0 0 0 0 0 0 0 0 0 0 0 0 0 0 0 0 0 0 127 0" result="hardAlpha"/>
<feOffset dy="4"/>
<feGaussianBlur stdDeviation="2"/>
<feComposite in2="hardAlpha" operator="arithmetic" k2="-1" k3="1"/>
<feColorMatrix type="matrix" values="0 0 0 0 0 0 0 0 0 0 0 0 0 0 0 0 0 0 0.25 0"/>
<feBlend mode="normal" in2="shape" result="effect1_innerShadow"/>
</filter>
<filter id="filter11_i" x="734.811" y="838.779" width="519.864" height="523.862" filterUnits="userSpaceOnUse" color-interpolation-filters="sRGB">
<feFlood flood-opacity="0" result="BackgroundImageFix"/>
<feBlend mode="normal" in="SourceGraphic" in2="BackgroundImageFix" result="shape"/>
<feColorMatrix in="SourceAlpha" type="matrix" values="0 0 0 0 0 0 0 0 0 0 0 0 0 0 0 0 0 0 127 0" result="hardAlpha"/>
<feOffset dy="4"/>
<feGaussianBlur stdDeviation="2"/>
<feComposite in2="hardAlpha" operator="arithmetic" k2="-1" k3="1"/>
<feColorMatrix type="matrix" values="0 0 0 0 0 0 0 0 0 0 0 0 0 0 0 0 0 0 0.25 0"/>
<feBlend mode="normal" in2="shape" result="effect1_innerShadow"/>
</filter>
<filter id="filter12_i" x="14.6597" y="14.6597" width="1956.68" height="1960.68" filterUnits="userSpaceOnUse" color-interpolation-filters="sRGB">
<feFlood flood-opacity="0" result="BackgroundImageFix"/>
<feBlend mode="normal" in="SourceGraphic" in2="BackgroundImageFix" result="shape"/>
<feColorMatrix in="SourceAlpha" type="matrix" values="0 0 0 0 0 0 0 0 0 0 0 0 0 0 0 0 0 0 127 0" result="hardAlpha"/>
<feOffset dy="4"/>
<feGaussianBlur stdDeviation="2"/>
<feComposite in2="hardAlpha" operator="arithmetic" k2="-1" k3="1"/>
<feColorMatrix type="matrix" values="0 0 0 0 0 0 0 0 0 0 0 0 0 0 0 0 0 0 0.25 0"/>
<feBlend mode="normal" in2="shape" result="effect1_innerShadow"/>
</filter>
</defs>
</svg>
