<svg xmlns="http://www.w3.org/2000/svg" viewBox="0 0 95.45 95.99">
    <defs>
        <style>.cls-1,.cls-3{fill:none;}.cls-1,.cls-2,.cls-3,.cls-4,.cls-5{stroke:#fff;stroke-miterlimit:10;}.cls-1,.cls-4{stroke-width:3px;}.cls-2,.cls-4,.cls-5{fill:#fff;}.cls-2{stroke-width:0.25px;}.cls-3,.cls-5{stroke-width:2px;}</style>
    </defs>
    <g id="Слой_2" data-name="Слой 2">
        <g id="Слой_2-2" data-name="Слой 2">
            <path class="cls-1" d="M44.55,93.36a46.58,46.58,0,0,1-43-46.21c0-24.5,19-44,43.38-45.65" />
            <path class="cls-1" d="M51.82,1.5A45.33,45.33,0,0,1,94,47.14a46.25,46.25,0,0,1-33.2,44.65" />
            <path class="cls-1" d="M20.13,27.28A34.12,34.12,0,0,1,45,12.73" />
            <path class="cls-1" d="M16.62,60.71a34.67,34.67,0,0,1,2.21-31.44" />
            <path class="cls-1" d="M44.88,81.56a34.46,34.46,0,0,1-20-9" />
            <path class="cls-1" d="M51.82,13.79A33.7,33.7,0,0,1,59.65,79" />
            <path class="cls-1" d="M29.53,34.89A20.56,20.56,0,0,1,45,25" />
            <path class="cls-1" d="M44.91,69.54C34.28,68.38,26,58.86,26,47.29a23.46,23.46,0,0,1,2.25-10.08" />
            <path class="cls-1" d="M51.87,25.53C62,26.66,70,36,70,47.28c0,8.9-4.91,16.56-12,20" />
            <polygon class="cls-2" points="44.88 42.55 44.88 47.56 10.07 18.93 13.25 15.36 44.88 42.55" />
            <path class="cls-3" d="M40.77,38.94A7.16,7.16,0,0,1,45,36.79" />
            <path class="cls-3" d="M44.94,56.5a9.5,9.5,0,0,1-8.38-9.86,15.12,15.12,0,0,1,.34-2" />
            <circle class="cls-4" cx="20.54" cy="67.11" r="4.68" />
            <path class="cls-5" d="M51.82,36.29l0,58.7h5.5L54.59,57.22S60,51.49,60.1,47.43C60.24,41.18,51.82,36.29,51.82,36.29Z" />
        </g>
    </g>
</svg>
