<svg width="300px" height="300px" viewBox="0 0 2298 2298" fill="none" xmlns="http://www.w3.org/2000/svg">
<g filter="url(#filter0_i)">
<path d="M1149.08 1042.58C1240.72 1042.58 1328.61 1006.17 1393.41 941.373C1458.21 876.573 1494.61 788.686 1494.61 697.044C1494.61 605.403 1458.21 517.517 1393.41 452.717C1328.61 387.917 1240.72 351.513 1149.08 351.513C1057.44 351.513 969.55 387.917 904.75 452.717C839.95 517.517 803.546 605.403 803.546 697.044C803.546 788.686 839.95 876.573 904.75 941.373C969.55 1006.17 1057.44 1042.58 1149.08 1042.58Z" fill="white"/>
</g>
<g filter="url(#filter1_i)">
<path fill-rule="evenodd" clip-rule="evenodd" d="M1336.11 1725.42C1316.76 1684.61 1290.22 1640.98 1291.02 1595.8C1291.02 1418.66 1282.57 1295.24 1483.57 1174.07C1405.61 1112.08 1311.77 1078.27 1226.15 1079.26C703.969 1079.26 573.426 1471.47 573.426 1602.2C573.426 1732.94 703.97 1732.94 703.97 1732.94L1336.11 1725.42Z" fill="white"/>
</g>
<g filter="url(#filter2_i)">
<path d="M1421.58 1404.9C1398.61 1404.9 1375.86 1409.43 1354.63 1418.22C1333.41 1427.01 1314.13 1439.89 1297.88 1456.14C1281.64 1472.38 1268.76 1491.67 1259.96 1512.89C1251.17 1534.11 1246.65 1556.86 1246.65 1579.83C1246.65 1602.8 1251.17 1625.55 1259.96 1646.77C1268.76 1668 1281.64 1687.28 1297.88 1703.52C1314.13 1719.77 1333.41 1732.65 1354.63 1741.44C1375.86 1750.24 1398.61 1754.76 1421.58 1754.76C1467.97 1754.76 1512.47 1736.33 1545.27 1703.52C1578.07 1670.72 1596.5 1626.22 1596.5 1579.83C1596.5 1533.44 1578.07 1488.94 1545.27 1456.14C1512.47 1423.33 1467.97 1404.9 1421.58 1404.9ZM1300.54 1579.83C1300.54 1547.73 1313.29 1516.94 1335.99 1494.24C1358.69 1471.55 1389.48 1458.79 1421.58 1458.79C1453.68 1458.79 1484.47 1471.55 1507.16 1494.24C1529.86 1516.94 1542.62 1547.73 1542.62 1579.83C1542.62 1611.93 1529.86 1642.72 1507.16 1665.42C1484.47 1688.12 1453.68 1700.87 1421.58 1700.87C1389.48 1700.87 1358.69 1688.12 1335.99 1665.42C1313.29 1642.72 1300.54 1611.93 1300.54 1579.83Z" fill="white"/>
</g>
<g filter="url(#filter3_i)">
<mask id="mask0" style="mask-type:alpha" maskUnits="userSpaceOnUse" x="990" y="1148" width="863" height="863">
<path d="M1518.39 1221.09C1489.99 1124.62 1353.22 1124.62 1324.82 1221.09L1319.75 1238.28C1317.77 1245.01 1314.3 1251.22 1309.61 1256.44C1304.92 1261.66 1299.12 1265.76 1292.63 1268.45C1286.15 1271.14 1279.14 1272.34 1272.13 1271.97C1265.12 1271.59 1258.28 1269.66 1252.12 1266.3L1236.38 1257.68C1148 1209.61 1051.38 1306.29 1099.5 1394.61L1108.07 1410.35C1111.43 1416.51 1113.36 1423.35 1113.74 1430.36C1114.11 1437.37 1112.91 1444.38 1110.22 1450.86C1107.53 1457.35 1103.43 1463.15 1098.21 1467.84C1092.99 1472.53 1086.78 1476 1080.05 1477.98L1062.86 1483.05C966.393 1511.45 966.393 1648.22 1062.86 1676.62L1080.05 1681.69C1086.78 1683.67 1092.99 1687.14 1098.21 1691.83C1103.43 1696.52 1107.53 1702.32 1110.22 1708.81C1112.91 1715.29 1114.11 1722.3 1113.74 1729.31C1113.36 1736.32 1111.43 1743.16 1108.07 1749.32L1099.45 1765.05C1051.38 1853.44 1148 1950.11 1236.38 1901.94L1252.12 1893.37C1258.28 1890.01 1265.12 1888.07 1272.13 1887.7C1279.14 1887.33 1286.15 1888.53 1292.63 1891.22C1299.12 1893.91 1304.92 1898.01 1309.61 1903.23C1314.3 1908.45 1317.77 1914.66 1319.75 1921.39L1324.82 1938.58C1353.22 2035.04 1489.99 2035.04 1518.39 1938.58L1523.46 1921.39C1525.44 1914.66 1528.91 1908.45 1533.6 1903.23C1538.29 1898.01 1544.09 1893.91 1550.58 1891.22C1557.06 1888.53 1564.07 1887.33 1571.08 1887.7C1578.09 1888.07 1584.93 1890.01 1591.09 1893.37L1606.82 1901.99C1695.2 1950.11 1791.88 1853.38 1743.71 1765.05L1735.14 1749.32C1731.78 1743.16 1729.84 1736.32 1729.47 1729.31C1729.1 1722.3 1730.3 1715.29 1732.99 1708.81C1735.68 1702.32 1739.78 1696.52 1745 1691.83C1750.22 1687.14 1756.43 1683.67 1763.15 1681.69L1780.34 1676.62C1876.82 1648.22 1876.82 1511.45 1780.34 1483.05L1763.15 1477.98C1756.43 1476 1750.22 1472.53 1745 1467.84C1739.78 1463.15 1735.68 1457.35 1732.99 1450.86C1730.3 1444.38 1729.1 1437.37 1729.47 1430.36C1729.84 1423.35 1731.78 1416.51 1735.14 1410.35L1743.76 1394.61C1791.88 1306.23 1695.15 1209.61 1606.82 1257.73L1591.09 1266.3C1584.93 1269.66 1578.09 1271.59 1571.08 1271.97C1564.07 1272.34 1557.06 1271.14 1550.58 1268.45C1544.09 1265.76 1538.29 1261.66 1533.6 1256.44C1528.91 1251.22 1525.44 1245.01 1523.46 1238.28L1518.39 1221.09ZM1376.5 1236.34C1389.76 1191.34 1453.45 1191.34 1466.71 1236.34L1471.78 1253.53C1476.03 1267.98 1483.47 1281.29 1493.54 1292.49C1503.61 1303.68 1516.07 1312.49 1529.98 1318.25C1543.9 1324.01 1558.93 1326.59 1573.97 1325.78C1589.01 1324.98 1603.68 1320.82 1616.9 1313.62L1632.59 1304.99C1673.76 1282.63 1718.81 1327.63 1696.39 1368.85L1687.82 1384.59C1680.62 1397.82 1676.48 1412.49 1675.68 1427.52C1674.89 1442.56 1677.47 1457.58 1683.24 1471.49C1689 1485.4 1697.81 1497.85 1709.01 1507.91C1720.21 1517.98 1733.52 1525.41 1747.96 1529.66L1765.11 1534.73C1810.1 1547.99 1810.1 1611.68 1765.11 1624.94L1747.91 1630.01C1733.46 1634.26 1720.15 1641.7 1708.95 1651.77C1697.75 1661.84 1688.95 1674.3 1683.19 1688.21C1677.43 1702.13 1674.85 1717.16 1675.65 1732.2C1676.46 1747.24 1680.61 1761.91 1687.82 1775.13L1696.44 1790.82C1718.81 1831.99 1673.81 1877.04 1632.59 1854.62L1616.9 1846.05C1603.67 1838.85 1589 1834.69 1573.96 1833.89C1558.91 1833.09 1543.88 1835.67 1529.96 1841.44C1516.05 1847.21 1503.6 1856.02 1493.53 1867.22C1483.46 1878.43 1476.03 1891.74 1471.78 1906.19L1466.71 1923.33C1453.45 1968.33 1389.76 1968.33 1376.5 1923.33L1371.43 1906.14C1367.17 1891.7 1359.73 1878.4 1349.67 1867.2C1339.6 1856.01 1327.16 1847.21 1313.25 1841.45C1299.34 1835.69 1284.32 1833.11 1269.28 1833.91C1254.25 1834.71 1239.58 1838.85 1226.36 1846.05L1210.62 1854.68C1169.45 1877.04 1124.4 1832.04 1146.82 1790.82L1155.39 1775.13C1162.6 1761.91 1166.77 1747.23 1167.58 1732.18C1168.38 1717.14 1165.81 1702.1 1160.05 1688.18C1154.29 1674.25 1145.48 1661.8 1134.28 1651.72C1123.07 1641.65 1109.75 1634.21 1095.3 1629.95L1078.11 1624.89C1033.11 1611.63 1033.11 1547.93 1078.11 1534.67L1095.3 1529.61C1109.73 1525.35 1123.03 1517.91 1134.22 1507.85C1145.4 1497.78 1154.2 1485.34 1159.96 1471.44C1165.72 1457.54 1168.3 1442.53 1167.51 1427.5C1166.72 1412.47 1162.57 1397.81 1155.39 1384.59L1146.76 1368.85C1124.4 1327.68 1169.4 1282.63 1210.62 1305.05L1226.36 1313.62C1239.58 1320.81 1254.25 1324.96 1269.28 1325.76C1284.32 1326.56 1299.34 1323.98 1313.25 1318.22C1327.16 1312.46 1339.6 1303.66 1349.67 1292.47C1359.73 1281.27 1367.17 1267.97 1371.43 1253.53L1376.5 1236.34Z" fill="white"/>
</mask>
<g mask="url(#mask0)">
<path d="M1518.39 1221.09C1489.99 1124.62 1353.22 1124.62 1324.82 1221.09L1319.75 1238.28C1317.77 1245.01 1314.3 1251.22 1309.61 1256.44C1304.92 1261.66 1299.12 1265.76 1292.63 1268.45C1286.15 1271.14 1279.14 1272.34 1272.13 1271.97C1265.12 1271.59 1258.28 1269.66 1252.12 1266.3L1236.38 1257.68C1148 1209.61 1051.38 1306.29 1099.5 1394.61L1108.07 1410.35C1111.43 1416.51 1113.36 1423.35 1113.74 1430.36C1114.11 1437.37 1112.91 1444.38 1110.22 1450.86C1107.53 1457.35 1103.43 1463.15 1098.21 1467.84C1092.99 1472.53 1086.78 1476 1080.05 1477.98L1062.86 1483.05C966.393 1511.45 966.393 1648.22 1062.86 1676.62L1080.05 1681.69C1086.78 1683.67 1092.99 1687.14 1098.21 1691.83C1103.43 1696.52 1107.53 1702.32 1110.22 1708.81C1112.91 1715.29 1114.11 1722.3 1113.74 1729.31C1113.36 1736.32 1111.43 1743.16 1108.07 1749.32L1099.45 1765.05C1051.38 1853.44 1148 1950.11 1236.38 1901.94L1252.12 1893.37C1258.28 1890.01 1265.12 1888.07 1272.13 1887.7C1279.14 1887.33 1286.15 1888.53 1292.63 1891.22C1299.12 1893.91 1304.92 1898.01 1309.61 1903.23C1314.3 1908.45 1317.77 1914.66 1319.75 1921.39L1324.82 1938.58C1353.22 2035.04 1489.99 2035.04 1518.39 1938.58L1523.46 1921.39C1525.44 1914.66 1528.91 1908.45 1533.6 1903.23C1538.29 1898.01 1544.09 1893.91 1550.58 1891.22C1557.06 1888.53 1564.07 1887.33 1571.08 1887.7C1578.09 1888.07 1584.93 1890.01 1591.09 1893.37L1606.82 1901.99C1695.2 1950.11 1791.88 1853.38 1743.71 1765.05L1735.14 1749.32C1731.78 1743.16 1729.84 1736.32 1729.47 1729.31C1729.1 1722.3 1730.3 1715.29 1732.99 1708.81C1735.68 1702.32 1739.78 1696.52 1745 1691.83C1750.22 1687.14 1756.43 1683.67 1763.15 1681.69L1780.34 1676.62C1876.82 1648.22 1876.82 1511.45 1780.34 1483.05L1763.15 1477.98C1756.43 1476 1750.22 1472.53 1745 1467.84C1739.78 1463.15 1735.68 1457.35 1732.99 1450.86C1730.3 1444.38 1729.1 1437.37 1729.47 1430.36C1729.84 1423.35 1731.78 1416.51 1735.14 1410.35L1743.76 1394.61C1791.88 1306.23 1695.15 1209.61 1606.82 1257.73L1591.09 1266.3C1584.93 1269.66 1578.09 1271.59 1571.08 1271.97C1564.07 1272.34 1557.06 1271.14 1550.58 1268.45C1544.09 1265.76 1538.29 1261.66 1533.6 1256.44C1528.91 1251.22 1525.44 1245.01 1523.46 1238.28L1518.39 1221.09ZM1376.5 1236.34C1389.76 1191.34 1453.45 1191.34 1466.71 1236.34L1471.78 1253.53C1476.03 1267.98 1483.47 1281.29 1493.54 1292.49C1503.61 1303.68 1516.07 1312.49 1529.98 1318.25C1543.9 1324.01 1558.93 1326.59 1573.97 1325.78C1589.01 1324.98 1603.68 1320.82 1616.9 1313.62L1632.59 1304.99C1673.76 1282.63 1718.81 1327.63 1696.39 1368.85L1687.82 1384.59C1680.62 1397.82 1676.48 1412.49 1675.68 1427.52C1674.89 1442.56 1677.47 1457.58 1683.24 1471.49C1689 1485.4 1697.81 1497.85 1709.01 1507.91C1720.21 1517.98 1733.52 1525.41 1747.96 1529.66L1765.11 1534.73C1810.1 1547.99 1810.1 1611.68 1765.11 1624.94L1747.91 1630.01C1733.46 1634.26 1720.15 1641.7 1708.95 1651.77C1697.75 1661.84 1688.95 1674.3 1683.19 1688.21C1677.43 1702.13 1674.85 1717.16 1675.65 1732.2C1676.46 1747.24 1680.61 1761.91 1687.82 1775.13L1696.44 1790.82C1718.81 1831.99 1673.81 1877.04 1632.59 1854.62L1616.9 1846.05C1603.67 1838.85 1589 1834.69 1573.96 1833.89C1558.91 1833.09 1543.88 1835.67 1529.96 1841.44C1516.05 1847.21 1503.6 1856.02 1493.53 1867.22C1483.46 1878.43 1476.03 1891.74 1471.78 1906.19L1466.71 1923.33C1453.45 1968.33 1389.76 1968.33 1376.5 1923.33L1371.43 1906.14C1367.17 1891.7 1359.73 1878.4 1349.67 1867.2C1339.6 1856.01 1327.16 1847.21 1313.25 1841.45C1299.34 1835.69 1284.32 1833.11 1269.28 1833.91C1254.25 1834.71 1239.58 1838.85 1226.36 1846.05L1210.62 1854.68C1169.45 1877.04 1124.4 1832.04 1146.82 1790.82L1155.39 1775.13C1162.6 1761.91 1166.77 1747.23 1167.58 1732.18C1168.38 1717.14 1165.81 1702.1 1160.05 1688.18C1154.29 1674.25 1145.48 1661.8 1134.28 1651.72C1123.07 1641.65 1109.75 1634.21 1095.3 1629.95L1078.11 1624.89C1033.11 1611.63 1033.11 1547.93 1078.11 1534.67L1095.3 1529.61C1109.73 1525.35 1123.03 1517.91 1134.22 1507.85C1145.4 1497.78 1154.2 1485.34 1159.96 1471.44C1165.72 1457.54 1168.3 1442.53 1167.51 1427.5C1166.72 1412.47 1162.57 1397.81 1155.39 1384.59L1146.76 1368.85C1124.4 1327.68 1169.4 1282.63 1210.62 1305.05L1226.36 1313.62C1239.58 1320.81 1254.25 1324.96 1269.28 1325.76C1284.32 1326.56 1299.34 1323.98 1313.25 1318.22C1327.16 1312.46 1339.6 1303.66 1349.67 1292.47C1359.73 1281.27 1367.17 1267.97 1371.43 1253.53L1376.5 1236.34Z" fill="white"/>
<path d="M1518.39 1221.09C1489.99 1124.62 1353.22 1124.62 1324.82 1221.09L1319.75 1238.28C1317.77 1245.01 1314.3 1251.22 1309.61 1256.44C1304.92 1261.66 1299.12 1265.76 1292.63 1268.45C1286.15 1271.14 1279.14 1272.34 1272.13 1271.97C1265.12 1271.59 1258.28 1269.66 1252.12 1266.3L1236.38 1257.68C1148 1209.61 1051.38 1306.29 1099.5 1394.61L1108.07 1410.35C1111.43 1416.51 1113.36 1423.35 1113.74 1430.36C1114.11 1437.37 1112.91 1444.38 1110.22 1450.86C1107.53 1457.35 1103.43 1463.15 1098.21 1467.84C1092.99 1472.53 1086.78 1476 1080.05 1477.98L1062.86 1483.05C966.393 1511.45 966.393 1648.22 1062.86 1676.62L1080.05 1681.69C1086.78 1683.67 1092.99 1687.14 1098.21 1691.83C1103.43 1696.52 1107.53 1702.32 1110.22 1708.81C1112.91 1715.29 1114.11 1722.3 1113.74 1729.31C1113.36 1736.32 1111.43 1743.16 1108.07 1749.32L1099.45 1765.05C1051.38 1853.44 1148 1950.11 1236.38 1901.94L1252.12 1893.37C1258.28 1890.01 1265.12 1888.07 1272.13 1887.7C1279.14 1887.33 1286.15 1888.53 1292.63 1891.22C1299.12 1893.91 1304.92 1898.01 1309.61 1903.23C1314.3 1908.45 1317.77 1914.66 1319.75 1921.39L1324.82 1938.58C1353.22 2035.04 1489.99 2035.04 1518.39 1938.58L1523.46 1921.39C1525.44 1914.66 1528.91 1908.45 1533.6 1903.23C1538.29 1898.01 1544.09 1893.91 1550.58 1891.22C1557.06 1888.53 1564.07 1887.33 1571.08 1887.7C1578.09 1888.07 1584.93 1890.01 1591.09 1893.37L1606.82 1901.99C1695.2 1950.11 1791.88 1853.38 1743.71 1765.05L1735.14 1749.32C1731.78 1743.16 1729.84 1736.32 1729.47 1729.31C1729.1 1722.3 1730.3 1715.29 1732.99 1708.81C1735.68 1702.32 1739.78 1696.52 1745 1691.83C1750.22 1687.14 1756.43 1683.67 1763.15 1681.69L1780.34 1676.62C1876.82 1648.22 1876.82 1511.45 1780.34 1483.05L1763.15 1477.98C1756.43 1476 1750.22 1472.53 1745 1467.84C1739.78 1463.15 1735.68 1457.35 1732.99 1450.86C1730.3 1444.38 1729.1 1437.37 1729.47 1430.36C1729.84 1423.35 1731.78 1416.51 1735.14 1410.35L1743.76 1394.61C1791.88 1306.23 1695.15 1209.61 1606.82 1257.73L1591.09 1266.3C1584.93 1269.66 1578.09 1271.59 1571.08 1271.97C1564.07 1272.34 1557.06 1271.14 1550.58 1268.45C1544.09 1265.76 1538.29 1261.66 1533.6 1256.44C1528.91 1251.22 1525.44 1245.01 1523.46 1238.28L1518.39 1221.09ZM1376.5 1236.34C1389.76 1191.34 1453.45 1191.34 1466.71 1236.34L1471.78 1253.53C1476.03 1267.98 1483.47 1281.29 1493.54 1292.49C1503.61 1303.68 1516.07 1312.49 1529.98 1318.25C1543.9 1324.01 1558.93 1326.59 1573.97 1325.78C1589.01 1324.98 1603.68 1320.82 1616.9 1313.62L1632.59 1304.99C1673.76 1282.63 1718.81 1327.63 1696.39 1368.85L1687.82 1384.59C1680.62 1397.82 1676.48 1412.49 1675.68 1427.52C1674.89 1442.56 1677.47 1457.58 1683.24 1471.49C1689 1485.4 1697.81 1497.85 1709.01 1507.91C1720.21 1517.98 1733.52 1525.41 1747.96 1529.66L1765.11 1534.73C1810.1 1547.99 1810.1 1611.68 1765.11 1624.94L1747.91 1630.01C1733.46 1634.26 1720.15 1641.7 1708.95 1651.77C1697.75 1661.84 1688.95 1674.3 1683.19 1688.21C1677.43 1702.13 1674.85 1717.16 1675.65 1732.2C1676.46 1747.24 1680.61 1761.91 1687.82 1775.13L1696.44 1790.82C1718.81 1831.99 1673.81 1877.04 1632.59 1854.62L1616.9 1846.05C1603.67 1838.85 1589 1834.69 1573.96 1833.89C1558.91 1833.09 1543.88 1835.67 1529.96 1841.44C1516.05 1847.21 1503.6 1856.02 1493.53 1867.22C1483.46 1878.43 1476.03 1891.74 1471.78 1906.19L1466.71 1923.33C1453.45 1968.33 1389.76 1968.33 1376.5 1923.33L1371.43 1906.14C1367.17 1891.7 1359.73 1878.4 1349.67 1867.2C1339.6 1856.01 1327.16 1847.21 1313.25 1841.45C1299.34 1835.69 1284.32 1833.11 1269.28 1833.91C1254.25 1834.71 1239.58 1838.85 1226.36 1846.05L1210.62 1854.68C1169.45 1877.04 1124.4 1832.04 1146.82 1790.82L1155.39 1775.13C1162.6 1761.91 1166.77 1747.23 1167.58 1732.18C1168.38 1717.14 1165.81 1702.1 1160.05 1688.18C1154.29 1674.25 1145.48 1661.8 1134.28 1651.72C1123.07 1641.65 1109.75 1634.21 1095.3 1629.95L1078.11 1624.89C1033.11 1611.63 1033.11 1547.93 1078.11 1534.67L1095.3 1529.61C1109.73 1525.35 1123.03 1517.91 1134.22 1507.85C1145.4 1497.78 1154.2 1485.34 1159.96 1471.44C1165.72 1457.54 1168.3 1442.53 1167.51 1427.5C1166.72 1412.47 1162.57 1397.81 1155.39 1384.59L1146.76 1368.85C1124.4 1327.68 1169.4 1282.63 1210.62 1305.05L1226.36 1313.62C1239.58 1320.81 1254.25 1324.96 1269.28 1325.76C1284.32 1326.56 1299.34 1323.98 1313.25 1318.22C1327.16 1312.46 1339.6 1303.66 1349.67 1292.47C1359.73 1281.27 1367.17 1267.97 1371.43 1253.53L1376.5 1236.34Z" stroke="#E5E5E5" stroke-width="2"/>
</g>
</g>
<circle cx="1149" cy="1149" r="1129" stroke="white" stroke-width="40"/>
<defs>
<filter id="filter0_i" x="803.546" y="351.513" width="691.063" height="695.064" filterUnits="userSpaceOnUse" color-interpolation-filters="sRGB">
<feFlood flood-opacity="0" result="BackgroundImageFix"/>
<feBlend mode="normal" in="SourceGraphic" in2="BackgroundImageFix" result="shape"/>
<feColorMatrix in="SourceAlpha" type="matrix" values="0 0 0 0 0 0 0 0 0 0 0 0 0 0 0 0 0 0 127 0" result="hardAlpha"/>
<feOffset dy="4"/>
<feGaussianBlur stdDeviation="2"/>
<feComposite in2="hardAlpha" operator="arithmetic" k2="-1" k3="1"/>
<feColorMatrix type="matrix" values="0 0 0 0 0 0 0 0 0 0 0 0 0 0 0 0 0 0 0.25 0"/>
<feBlend mode="normal" in2="shape" result="effect1_innerShadow"/>
</filter>
<filter id="filter1_i" x="573.426" y="1079.24" width="910.147" height="657.693" filterUnits="userSpaceOnUse" color-interpolation-filters="sRGB">
<feFlood flood-opacity="0" result="BackgroundImageFix"/>
<feBlend mode="normal" in="SourceGraphic" in2="BackgroundImageFix" result="shape"/>
<feColorMatrix in="SourceAlpha" type="matrix" values="0 0 0 0 0 0 0 0 0 0 0 0 0 0 0 0 0 0 127 0" result="hardAlpha"/>
<feOffset dy="4"/>
<feGaussianBlur stdDeviation="2"/>
<feComposite in2="hardAlpha" operator="arithmetic" k2="-1" k3="1"/>
<feColorMatrix type="matrix" values="0 0 0 0 0 0 0 0 0 0 0 0 0 0 0 0 0 0 0.25 0"/>
<feBlend mode="normal" in2="shape" result="effect1_innerShadow"/>
</filter>
<filter id="filter2_i" x="1246.65" y="1404.9" width="349.855" height="353.855" filterUnits="userSpaceOnUse" color-interpolation-filters="sRGB">
<feFlood flood-opacity="0" result="BackgroundImageFix"/>
<feBlend mode="normal" in="SourceGraphic" in2="BackgroundImageFix" result="shape"/>
<feColorMatrix in="SourceAlpha" type="matrix" values="0 0 0 0 0 0 0 0 0 0 0 0 0 0 0 0 0 0 127 0" result="hardAlpha"/>
<feOffset dy="4"/>
<feGaussianBlur stdDeviation="2"/>
<feComposite in2="hardAlpha" operator="arithmetic" k2="-1" k3="1"/>
<feColorMatrix type="matrix" values="0 0 0 0 0 0 0 0 0 0 0 0 0 0 0 0 0 0 0.25 0"/>
<feBlend mode="normal" in2="shape" result="effect1_innerShadow"/>
</filter>
<filter id="filter3_i" x="990.509" y="1148.74" width="862.195" height="866.187" filterUnits="userSpaceOnUse" color-interpolation-filters="sRGB">
<feFlood flood-opacity="0" result="BackgroundImageFix"/>
<feBlend mode="normal" in="SourceGraphic" in2="BackgroundImageFix" result="shape"/>
<feColorMatrix in="SourceAlpha" type="matrix" values="0 0 0 0 0 0 0 0 0 0 0 0 0 0 0 0 0 0 127 0" result="hardAlpha"/>
<feOffset dy="4"/>
<feGaussianBlur stdDeviation="2"/>
<feComposite in2="hardAlpha" operator="arithmetic" k2="-1" k3="1"/>
<feColorMatrix type="matrix" values="0 0 0 0 0 0 0 0 0 0 0 0 0 0 0 0 0 0 0.25 0"/>
<feBlend mode="normal" in2="shape" result="effect1_innerShadow"/>
</filter>
</defs>
</svg>
